<svg width="15" height="17" viewBox="0 0 15 17" fill="none" xmlns="http://www.w3.org/2000/svg">
<path d="M1.01282 14.5081C1.00938 14.9059 1.16411 15.2888 1.44298 15.5725C1.72184 15.8563 2.10199 16.0176 2.4998 16.021L11.4995 16.0988C11.8973 16.1022 12.2802 15.9475 12.5639 15.6686C12.8476 15.3898 13.0089 15.0096 13.0124 14.6118L13.1031 4.11222L1.10357 4.0085L1.01282 14.5081ZM9.58165 6.58187C9.58279 6.44927 9.63657 6.32255 9.73114 6.2296C9.82572 6.13664 9.95335 6.08507 10.086 6.08621C10.2186 6.08736 10.3453 6.14114 10.4382 6.23571C10.5312 6.33029 10.5828 6.45791 10.5816 6.59052L10.5211 13.5903C10.52 13.7229 10.4662 13.8496 10.3716 13.9425C10.277 14.0355 10.1494 14.0871 10.0168 14.0859C9.8842 14.0848 9.75748 14.031 9.66453 13.9364C9.57158 13.8418 9.52 13.7142 9.52115 13.5816L9.58165 6.58187ZM6.58176 6.55594C6.58291 6.42334 6.63668 6.29662 6.73126 6.20367C6.82583 6.11072 6.95346 6.05914 7.08606 6.06028C7.21867 6.06143 7.34538 6.11521 7.43834 6.20978C7.53129 6.30436 7.58287 6.43198 7.58172 6.56459L7.52122 13.5643C7.52007 13.6969 7.4663 13.8236 7.37172 13.9166C7.27715 14.0096 7.14952 14.0611 7.01692 14.06C6.88431 14.0588 6.7576 14.0051 6.66464 13.9105C6.57169 13.8159 6.52011 13.6883 6.52126 13.5557L6.58176 6.55594ZM3.58187 6.53001C3.58302 6.39741 3.63679 6.27069 3.73137 6.17774C3.82594 6.08479 3.95357 6.03321 4.08617 6.03435C4.21878 6.0355 4.34549 6.08928 4.43845 6.18385C4.5314 6.27843 4.58298 6.40605 4.58183 6.53866L4.52133 13.5384C4.52019 13.671 4.46641 13.7977 4.37183 13.8907C4.27726 13.9836 4.14963 14.0352 4.01703 14.0341C3.88443 14.0329 3.75771 13.9791 3.66475 13.8846C3.5718 13.79 3.52022 13.6624 3.52137 13.5298L3.58187 6.53001ZM13.629 1.11665L9.87918 1.08424L9.59049 0.497347C9.52934 0.371881 9.4344 0.265966 9.31635 0.191516C9.19829 0.117067 9.0618 0.077037 8.92223 0.0759307L5.35049 0.0450583C5.21124 0.0433193 5.07432 0.0808408 4.95541 0.153324C4.83651 0.225807 4.74042 0.330319 4.67817 0.454888L4.37938 1.0367L0.629522 1.00429C0.496918 1.00314 0.369291 1.05472 0.274716 1.14768C0.180141 1.24063 0.126365 1.36735 0.125219 1.49995L0.116576 2.49991C0.115429 2.63252 0.167007 2.76014 0.259961 2.85472C0.352915 2.94929 0.479632 3.00307 0.612235 3.00421L13.6118 3.11658C13.7444 3.11772 13.872 3.06615 13.9666 2.97319C14.0611 2.88024 14.1149 2.75352 14.1161 2.62092L14.1247 1.62095C14.1258 1.48835 14.0743 1.36072 13.9813 1.26615C13.8884 1.17157 13.7616 1.1178 13.629 1.11665Z" fill="#D72626" fill-opacity="0.75"/>
</svg>
