<svg width="20" height="23" viewBox="0 0 20 23" fill="none" xmlns="http://www.w3.org/2000/svg">
<path d="M1.375 20.4375C1.375 20.9845 1.5923 21.5091 1.97909 21.8959C2.36589 22.2827 2.89049 22.5 3.4375 22.5H15.8125C16.3595 22.5 16.8841 22.2827 17.2709 21.8959C17.6577 21.5091 17.875 20.9845 17.875 20.4375V6H1.375V20.4375ZM13.0625 9.4375C13.0625 9.25517 13.1349 9.0803 13.2639 8.95137C13.3928 8.82244 13.5677 8.75 13.75 8.75C13.9323 8.75 14.1072 8.82244 14.2361 8.95137C14.3651 9.0803 14.4375 9.25517 14.4375 9.4375V19.0625C14.4375 19.2448 14.3651 19.4197 14.2361 19.5486C14.1072 19.6776 13.9323 19.75 13.75 19.75C13.5677 19.75 13.3928 19.6776 13.2639 19.5486C13.1349 19.4197 13.0625 19.2448 13.0625 19.0625V9.4375ZM8.9375 9.4375C8.9375 9.25517 9.00993 9.0803 9.13886 8.95137C9.26779 8.82244 9.44266 8.75 9.625 8.75C9.80733 8.75 9.9822 8.82244 10.1111 8.95137C10.2401 9.0803 10.3125 9.25517 10.3125 9.4375V19.0625C10.3125 19.2448 10.2401 19.4197 10.1111 19.5486C9.9822 19.6776 9.80733 19.75 9.625 19.75C9.44266 19.75 9.26779 19.6776 9.13886 19.5486C9.00993 19.4197 8.9375 19.2448 8.9375 19.0625V9.4375ZM4.8125 9.4375C4.8125 9.25517 4.88493 9.0803 5.01386 8.95137C5.14279 8.82244 5.31766 8.75 5.5 8.75C5.68233 8.75 5.8572 8.82244 5.98613 8.95137C6.11506 9.0803 6.1875 9.25517 6.1875 9.4375V19.0625C6.1875 19.2448 6.11506 19.4197 5.98613 19.5486C5.8572 19.6776 5.68233 19.75 5.5 19.75C5.31766 19.75 5.14279 19.6776 5.01386 19.5486C4.88493 19.4197 4.8125 19.2448 4.8125 19.0625V9.4375ZM18.5625 1.87501H13.4062L13.0023 1.07149C12.9168 0.899709 12.785 0.755209 12.6218 0.654247C12.4586 0.553286 12.2704 0.49987 12.0785 0.500008H7.16718C6.97571 0.499271 6.78789 0.552489 6.62527 0.653562C6.46264 0.754636 6.33177 0.899477 6.24765 1.07149L5.84375 1.87501H0.6875C0.505163 1.87501 0.330295 1.94744 0.201364 2.07637C0.0724328 2.2053 0 2.38017 0 2.56251L0 3.93751C0 4.11984 0.0724328 4.29471 0.201364 4.42364C0.330295 4.55257 0.505163 4.62501 0.6875 4.62501H18.5625C18.7448 4.62501 18.9197 4.55257 19.0486 4.42364C19.1776 4.29471 19.25 4.11984 19.25 3.93751V2.56251C19.25 2.38017 19.1776 2.2053 19.0486 2.07637C18.9197 1.94744 18.7448 1.87501 18.5625 1.87501Z" fill="#D72626" fill-opacity="0.75"/>
</svg>
