<svg width="30" height="27" viewBox="0 0 30 27" fill="none" xmlns="http://www.w3.org/2000/svg">
<path d="M27.5063 16.027L29.9684 5.19368C30.1462 4.41149 29.5516 3.66665 28.7495 3.66665H8.29209L7.81469 1.33279C7.69573 0.751074 7.18386 0.333313 6.59005 0.333313H1.25C0.559636 0.333313 0 0.892949 0 1.58331V2.41665C0 3.10701 0.559636 3.66665 1.25 3.66665H4.88974L8.54849 21.5539C7.67318 22.0573 7.08334 23.0011 7.08334 24.0833C7.08334 25.6942 8.38917 27 10 27C11.6108 27 12.9167 25.6942 12.9167 24.0833C12.9167 23.267 12.5809 22.5294 12.0404 22H22.9595C22.4191 22.5294 22.0833 23.267 22.0833 24.0833C22.0833 25.6942 23.3892 27 25 27C26.6108 27 27.9167 25.6942 27.9167 24.0833C27.9167 22.9285 27.2454 21.9306 26.2719 21.4581L26.5593 20.1937C26.737 19.4115 26.1425 18.6666 25.3404 18.6666H11.3603L11.0194 17H26.2874C26.871 17 27.3769 16.5961 27.5063 16.027Z" fill="#0D0D0D"/>
</svg>
