<svg width="25" height="23" viewBox="0 0 25 23" fill="none" xmlns="http://www.w3.org/2000/svg">
<path d="M18.9278 14.3935L18.9262 14.3919L16.0082 11.5L18.9262 8.60807L18.9278 8.60648C19.3574 8.17685 19.3574 7.4794 18.9278 7.04977L16.9502 5.07223C16.5206 4.64259 15.8232 4.64259 15.3935 5.07222L15.3919 5.07382L12.5 7.99184L9.60807 5.07382L9.60648 5.07223C9.17685 4.64259 8.4794 4.64259 8.04977 5.07223L6.07223 7.04977C5.64259 7.4794 5.64259 8.17685 6.07222 8.60649L6.07382 8.60807L8.99184 11.5L6.07382 14.3919L6.07223 14.3935C5.64259 14.8232 5.64259 15.5206 6.07223 15.9502L8.04977 17.9278C8.4794 18.3574 9.17685 18.3574 9.60649 17.9278L9.60807 17.9262L12.5 15.0082L15.3919 17.9262L15.3935 17.9278C15.8232 18.3574 16.5206 18.3574 16.9502 17.9278L18.9278 15.9502C19.3574 15.5206 19.3574 14.8232 18.9278 14.3935ZM2.34375 1.0625H22.6562C23.6741 1.0625 24.5 1.88845 24.5 2.90625V20.0938C24.5 21.1116 23.6741 21.9375 22.6562 21.9375H2.34375C1.32595 21.9375 0.5 21.1116 0.5 20.0938V2.90625C0.5 1.88845 1.32595 1.0625 2.34375 1.0625Z" stroke="#3C3C3C"/>
</svg>
