<svg width="26" height="22" viewBox="0 0 26 22" fill="none" xmlns="http://www.w3.org/2000/svg">
<path d="M14.6631 2.63572L14.6633 2.63549C16.9579 0.267907 20.6393 -0.0852601 23.091 2.00376C25.9348 4.43094 26.0862 8.7942 23.5351 11.4269L23.535 11.427L14.0868 21.1827C14.0868 21.1828 14.0867 21.1828 14.0867 21.1828C13.6728 21.6098 13.007 21.6098 12.5931 21.1828C12.5931 21.1828 12.5931 21.1828 12.593 21.1827L3.14511 11.4272C0.598542 8.79453 0.749883 4.43113 3.59358 2.00388C6.04545 -0.0854417 9.73161 0.268151 12.0211 2.63513L12.0216 2.63572L12.9835 3.62693L13.3424 3.99668L13.7012 3.62693L14.6631 2.63572Z" stroke="black"/>
</svg>
