<svg width="116" height="116" viewBox="0 0 116 116" fill="none" xmlns="http://www.w3.org/2000/svg">
<rect width="116" height="116" rx="58" fill="white"/>
<path d="M27.9531 49.875L28.2656 49.375C28.3802 49.1979 28.4427 49.0469 28.4531 48.9219C28.4635 48.7969 28.526 48.6458 28.6406 48.4688C29.0885 48.2188 29.4635 47.9427 29.7656 47.6406C30.0885 47.3177 30.474 47.0521 30.9219 46.8438C31.224 46.6354 31.4583 46.4948 31.625 46.4219C31.8125 46.3385 31.9844 46.2396 32.1406 46.125C32.2344 46.0833 32.3281 46.0417 32.4219 46C32.5156 45.9583 32.6042 45.9167 32.6875 45.875C32.8854 45.7812 33.0885 45.7083 33.2969 45.6562C33.4844 45.6042 33.6302 45.5469 33.7344 45.4844C33.7969 45.4427 33.8594 45.4115 33.9219 45.3906C33.9844 45.3594 34.0469 45.3333 34.1094 45.3125C34.4323 45.1979 34.724 45.1042 34.9844 45.0312C35.1302 44.9896 35.2708 44.9479 35.4062 44.9062C35.5521 44.8646 35.6927 44.8229 35.8281 44.7812L36.2031 44.625C36.3385 44.5625 36.474 44.5417 36.6094 44.5625C36.8281 44.6042 36.9688 44.6146 37.0312 44.5938C37.0938 44.5729 37.1406 44.5625 37.1719 44.5625C37.349 44.5417 37.4896 44.5625 37.5938 44.625C37.6458 44.6562 37.7031 44.6875 37.7656 44.7188C37.8385 44.7396 37.9115 44.7604 37.9844 44.7812C38.1094 44.8229 38.2292 44.8542 38.3438 44.875C38.4583 44.8854 38.5677 44.9167 38.6719 44.9688C38.7865 45.0104 38.875 45.0677 38.9375 45.1406L39.1406 45.3438C39.2448 45.4062 39.3229 45.4583 39.375 45.5L39.6094 45.6875C39.6927 45.8646 39.7812 46.0417 39.875 46.2188C39.9688 46.3958 40.0677 46.5729 40.1719 46.75C40.3802 47.1146 40.4844 47.5417 40.4844 48.0312C40.3594 48.2188 40.2865 48.3125 40.2656 48.3125C40.2344 48.3125 40.2135 48.3333 40.2031 48.375C40.0885 48.4479 39.9896 48.5208 39.9062 48.5938C39.8229 48.6562 39.7552 48.7135 39.7031 48.7656L39.3594 49.125L38.9219 49.5625C38.8802 49.5938 38.8073 49.6302 38.7031 49.6719C38.6094 49.7031 38.5573 49.7708 38.5469 49.875C38.401 49.9375 38.2656 50.0417 38.1406 50.1875C38.026 50.3229 37.8906 50.4167 37.7344 50.4688C37.5677 50.6771 37.3385 50.8594 37.0469 51.0156C36.9115 51.0885 36.7812 51.1615 36.6562 51.2344C36.5312 51.3073 36.4115 51.3854 36.2969 51.4688L35.8438 51.75C35.7708 51.7917 35.7031 51.8438 35.6406 51.9062C35.526 51.9583 35.4167 52.0104 35.3125 52.0625C35.2083 52.1146 35.1146 52.1667 35.0312 52.2188C34.8646 52.3229 34.6615 52.4167 34.4219 52.5C34.3073 52.5521 34.2083 52.6042 34.125 52.6562C34.0417 52.7188 33.9219 52.7396 33.7656 52.7188L33.4531 52.5781C33.349 52.526 33.2552 52.5729 33.1719 52.7188C32.901 52.7604 32.6458 52.7135 32.4062 52.5781C32.1667 52.4427 32.0365 52.25 32.0156 52C31.7656 51.7917 31.6927 51.5104 31.7969 51.1562C31.8385 51 31.9167 50.8333 32.0312 50.6562C32.0833 50.5729 32.1354 50.4948 32.1875 50.4219C32.2396 50.3385 32.2865 50.2604 32.3281 50.1875C32.4219 50.0208 32.5156 49.8385 32.6094 49.6406C32.6927 49.4635 32.7865 49.2917 32.8906 49.125C33.1823 48.8125 33.4792 48.5208 33.7812 48.25C34.0833 47.9792 34.4635 47.7917 34.9219 47.6875C35.0677 47.6458 35.2135 47.6042 35.3594 47.5625C35.5052 47.5208 35.6406 47.4792 35.7656 47.4375C35.8281 47.4792 35.8906 47.4792 35.9531 47.4375C36.0156 47.3854 36.0781 47.3854 36.1406 47.4375C36.224 47.5 36.2552 47.5729 36.2344 47.6562C36.2135 47.7604 36.2031 47.8542 36.2031 47.9375C36.0677 48.125 35.8802 48.2188 35.6406 48.2188C35.4115 48.2188 35.276 48.3438 35.2344 48.5938C34.6302 49.1146 34.1094 49.7396 33.6719 50.4688C33.7344 50.5104 33.8177 50.5625 33.9219 50.625C34.026 50.6875 34.1302 50.7292 34.2344 50.75C34.401 50.7917 34.5938 50.75 34.8125 50.625C35.0312 50.5 35.2031 50.4062 35.3281 50.3438C35.9115 50.0729 36.4323 49.7083 36.8906 49.25C37.0156 49.1458 37.1458 49.0312 37.2812 48.9062C37.4167 48.7812 37.5156 48.6562 37.5781 48.5312C37.6198 48.4792 37.6562 48.4271 37.6875 48.375C37.7292 48.3229 37.7656 48.2708 37.7969 48.2188C37.8594 48.1146 37.9427 48.0312 38.0469 47.9688C38.0781 47.7188 38.0365 47.5312 37.9219 47.4062C37.8073 47.2812 37.6771 47.1562 37.5312 47.0312C37.3854 46.8958 37.276 46.7083 37.2031 46.4688C37.099 46.4271 37.0104 46.3542 36.9375 46.25C36.8646 46.1458 36.776 46.0729 36.6719 46.0312C36.651 46.0312 36.6198 46.0312 36.5781 46.0312C36.5365 46.0208 36.4792 46.0104 36.4062 46L36.1719 45.9688C35.651 46.0729 35.2448 46.1875 34.9531 46.3125C34.6615 46.4375 34.3698 46.5625 34.0781 46.6875C33.3802 47.0625 32.724 47.5 32.1094 48C32.0781 48.0208 32.0417 48.0417 32 48.0625C31.9688 48.0833 31.9323 48.1042 31.8906 48.125C31.7865 48.1875 31.724 48.2292 31.7031 48.25C31.6198 48.3125 31.5312 48.4167 31.4375 48.5625C31.3958 48.625 31.3542 48.6875 31.3125 48.75C31.2708 48.8125 31.224 48.875 31.1719 48.9375L30.8438 49.3594C30.7292 49.5052 30.651 49.6562 30.6094 49.8125C30.4948 49.875 30.4115 49.9948 30.3594 50.1719C30.3073 50.3594 30.2344 50.5 30.1406 50.5938C30.0885 50.7708 30.0365 50.9219 29.9844 51.0469C29.9323 51.1719 29.8802 51.3333 29.8281 51.5312C29.9219 51.7188 30.0052 51.8854 30.0781 52.0312C30.151 52.1771 30.2083 52.3021 30.25 52.4062C30.3021 52.5104 30.349 52.6146 30.3906 52.7188C30.4427 52.8229 30.4948 52.9271 30.5469 53.0312C30.5573 53.25 30.625 53.4531 30.75 53.6406C30.8646 53.8073 30.974 54.0104 31.0781 54.25C31.3802 54.75 31.6458 55.2552 31.875 55.7656C32.1042 56.276 32.3698 56.7812 32.6719 57.2812C32.7344 57.4271 32.7969 57.5729 32.8594 57.7188C32.9219 57.8542 32.9792 57.9948 33.0312 58.1406C33.1458 58.4323 33.3177 58.6771 33.5469 58.875C33.5677 58.9479 33.5885 59.0208 33.6094 59.0938C33.6406 59.1562 33.6771 59.224 33.7188 59.2969C33.7604 59.3698 33.7969 59.4427 33.8281 59.5156C33.8594 59.5781 33.8906 59.6458 33.9219 59.7188C33.9635 59.8438 34.0104 59.974 34.0625 60.1094C34.125 60.2448 34.1927 60.3854 34.2656 60.5312C34.3177 60.6667 34.3906 60.8125 34.4844 60.9688C34.5677 61.0938 34.6302 61.2188 34.6719 61.3438C34.7552 61.5312 34.8229 61.7656 34.875 62.0469C34.9271 62.3281 34.9427 62.5625 34.9219 62.75C34.9219 63.0417 34.901 63.2188 34.8594 63.2812C34.8281 63.3333 34.7812 63.3854 34.7188 63.4375C34.6667 63.4792 34.6094 63.6458 34.5469 63.9375C34.349 64.2917 34.1302 64.5938 33.8906 64.8438C33.6406 65.1042 33.4219 65.4167 33.2344 65.7812C33.1302 65.9271 32.9948 66.0729 32.8281 66.2188L32.3906 66.5938C32.2552 66.6979 32.1042 66.7917 31.9375 66.875C31.7917 66.9479 31.651 67.0521 31.5156 67.1875C31.1615 67.5 30.7917 67.724 30.4062 67.8594C29.9896 68.0156 29.6302 68.1979 29.3281 68.4062C29.2031 68.4062 29.0781 68.4219 28.9531 68.4531C28.8281 68.4844 28.7031 68.5208 28.5781 68.5625C28.474 68.6042 28.3646 68.6458 28.25 68.6875C28.1354 68.7292 28.0156 68.7708 27.8906 68.8125C27.7552 68.8646 27.6667 68.9062 27.625 68.9375C27.5833 68.9583 27.4948 69 27.3594 69.0625C27.0677 69.125 26.7552 69.1615 26.4219 69.1719C26.0885 69.1823 25.7448 69.1458 25.3906 69.0625C24.9948 68.9167 24.6875 68.8542 24.4688 68.875C24.25 68.8854 24.0573 68.8021 23.8906 68.625C23.7865 68.5833 23.7292 68.5312 23.7188 68.4688C23.7083 68.4062 23.6615 68.3438 23.5781 68.2812L23.1406 67.9375C23.0573 67.875 22.9948 67.8229 22.9531 67.7812C22.651 67.5312 22.401 67.2396 22.2031 66.9062L22.0156 66.5938C21.9427 66.4688 21.901 66.375 21.8906 66.3125C21.849 66.1979 21.8438 66.0677 21.875 65.9219C21.9062 65.7865 21.8802 65.6562 21.7969 65.5312C21.8177 65.3854 21.8177 65.2292 21.7969 65.0625C21.7865 64.9792 21.7812 64.901 21.7812 64.8281C21.7708 64.7552 21.7656 64.6875 21.7656 64.625C21.7656 64.4583 21.7917 64.2708 21.8438 64.0625C21.8958 63.875 21.8906 63.7292 21.8281 63.625C21.8698 63.3542 21.9323 63.151 22.0156 63.0156C22.099 62.8802 22.2031 62.7292 22.3281 62.5625C22.5052 62.4792 22.6667 62.401 22.8125 62.3281C22.9688 62.2552 23.1042 62.1823 23.2188 62.1094C23.3333 62.0365 23.4531 61.9688 23.5781 61.9062C23.7031 61.8438 23.8281 61.7812 23.9531 61.7188C24.0885 61.6562 24.1771 61.6146 24.2188 61.5938L24.4531 61.4688C24.6198 61.375 24.8177 61.2917 25.0469 61.2188C25.2865 61.1458 25.5052 61.0625 25.7031 60.9688C25.901 60.8542 26.0938 60.7604 26.2812 60.6875C26.4688 60.6146 26.6615 60.5208 26.8594 60.4062C26.9948 60.4062 27.1146 60.375 27.2188 60.3125C27.3333 60.25 27.4635 60.2188 27.6094 60.2188C27.6719 60.2188 27.724 60.224 27.7656 60.2344C27.8073 60.2448 27.8698 60.25 27.9531 60.25H28.2969C28.4323 60.25 28.5469 60.2708 28.6406 60.3125C28.7552 60.3542 28.849 60.4167 28.9219 60.5C29.0052 60.5833 29.1198 60.625 29.2656 60.625C29.4115 60.7708 29.5312 60.9323 29.625 61.1094C29.7188 61.2865 29.7969 61.4688 29.8594 61.6562C29.9635 61.9271 30.0156 62.2292 30.0156 62.5625C30.0052 62.8646 29.8958 63.1042 29.6875 63.2812C29.4896 63.4479 29.3073 63.6458 29.1406 63.875C28.849 63.9792 28.526 64.1562 28.1719 64.4062C27.9635 64.3854 27.776 64.4219 27.6094 64.5156C27.4323 64.6198 27.2344 64.6979 27.0156 64.75C26.9115 64.7604 26.7969 64.7604 26.6719 64.75C26.5365 64.7292 26.4219 64.7396 26.3281 64.7812C26.2448 64.7917 26.1406 64.8333 26.0156 64.9062C25.901 64.9688 25.7969 64.9792 25.7031 64.9375C25.599 64.8958 25.5208 64.8125 25.4688 64.6875C25.4167 64.5625 25.4115 64.4375 25.4531 64.3125C25.5885 64.0938 25.7708 63.9635 26 63.9219C26.2188 63.8802 26.4531 63.7917 26.7031 63.6562C26.9323 63.5312 27.1146 63.3958 27.25 63.25C27.3333 63.1667 27.4115 63.0833 27.4844 63C27.5677 62.9167 27.651 62.8333 27.7344 62.75C27.849 62.625 27.974 62.5 28.1094 62.375C28.2552 62.25 28.2865 62.0833 28.2031 61.875C28.0156 61.7292 27.8021 61.6875 27.5625 61.75C27.3229 61.8125 27.1094 61.8854 26.9219 61.9688C26.7344 62.0521 26.5469 62.1406 26.3594 62.2344C26.1719 62.3177 25.9896 62.4062 25.8125 62.5C25.6354 62.5938 25.4531 62.6875 25.2656 62.7812C25.0885 62.8646 24.9115 62.9479 24.7344 63.0312C24.5677 63.0938 24.4427 63.1667 24.3594 63.25C24.3073 63.3125 24.276 63.3958 24.2656 63.5C24.2552 63.6042 24.224 63.6979 24.1719 63.7812C24.026 64.1042 23.9844 64.4167 24.0469 64.7188C24.099 64.8333 24.151 64.9323 24.2031 65.0156C24.2656 65.1094 24.2969 65.2083 24.2969 65.3125C24.4531 65.4688 24.5885 65.625 24.7031 65.7812C24.7656 65.8229 24.8177 65.849 24.8594 65.8594C24.901 65.8698 24.9635 65.8854 25.0469 65.9062C25.224 66.0208 25.474 66.1354 25.7969 66.25C25.9219 66.2917 26.1146 66.3542 26.375 66.4375C26.6354 66.5208 26.8177 66.5625 26.9219 66.5625C27.0365 66.5833 27.1719 66.5625 27.3281 66.5L27.7656 66.3438C28.0052 66.2292 28.2448 66.1146 28.4844 66C28.7344 65.875 28.9844 65.75 29.2344 65.625C29.4844 65.5 29.7292 65.3802 29.9688 65.2656C30.2188 65.1406 30.4635 65.0208 30.7031 64.9062C31.0677 64.6771 31.349 64.4062 31.5469 64.0938C31.7344 63.8646 31.8906 63.5833 32.0156 63.25C32.1406 62.9167 32.2344 62.5729 32.2969 62.2188C32.3177 62.1146 32.3281 62.0365 32.3281 61.9844V61.7812C32.2031 61.5417 32.1458 61.401 32.1562 61.3594C32.1771 61.3073 32.1615 61.2604 32.1094 61.2188C31.9531 60.9479 31.8646 60.776 31.8438 60.7031C31.8021 60.5781 31.7656 60.4896 31.7344 60.4375C31.6615 60.3229 31.5781 60.2188 31.4844 60.125C31.401 60.0208 31.3073 59.9271 31.2031 59.8438C30.9948 59.6667 30.8594 59.4167 30.7969 59.0938C30.6615 58.9792 30.5729 58.8438 30.5312 58.6875C30.4896 58.5312 30.3802 58.4271 30.2031 58.375L30.0938 58.1094C30.0833 58.0677 30.0677 58.026 30.0469 57.9844C30.026 57.9323 30.0052 57.875 29.9844 57.8125C29.8594 57.6667 29.7656 57.5104 29.7031 57.3438C29.5573 57.2188 29.4531 57.1042 29.3906 57C29.2969 56.8438 29.2031 56.7083 29.1094 56.5938C28.9635 56.4479 28.849 56.3229 28.7656 56.2188C28.724 56.1667 28.6823 56.1146 28.6406 56.0625C28.6094 56 28.5833 55.9375 28.5625 55.875C28.5208 55.7604 28.4427 55.6458 28.3281 55.5312C28.2656 55.4167 28.1875 55.3229 28.0938 55.25C28.0104 55.1771 27.9427 55.0729 27.8906 54.9375C27.5885 54.5833 27.3698 54.1042 27.2344 53.5C27.276 53.2604 27.2344 53.0417 27.1094 52.8438C26.9844 52.6562 26.9531 52.4167 27.0156 52.125C27.1302 51.8125 27.2448 51.5208 27.3594 51.25C27.4219 51.1042 27.4792 50.9635 27.5312 50.8281C27.5833 50.6927 27.6302 50.5625 27.6719 50.4375C27.7865 50.3854 27.849 50.3073 27.8594 50.2031C27.8802 50.0885 27.9115 49.9792 27.9531 49.875ZM38.6094 65.625C39.0781 65.2188 39.5208 64.7656 39.9375 64.2656C40.1458 64.026 40.3594 63.7812 40.5781 63.5312C40.7969 63.2812 41.026 63.0312 41.2656 62.7812C41.3698 62.6771 41.474 62.5521 41.5781 62.4062C41.6823 62.2604 41.7865 62.1042 41.8906 61.9375C41.974 61.8125 42.0781 61.6927 42.2031 61.5781C42.3385 61.4531 42.4427 61.3438 42.5156 61.25C42.5781 61.1458 42.6562 61.0625 42.75 61C42.8021 60.9688 42.849 60.9375 42.8906 60.9062C42.9427 60.8646 42.9948 60.8229 43.0469 60.7812C43.151 60.6771 43.2448 60.5885 43.3281 60.5156C43.4115 60.4427 43.5052 60.3646 43.6094 60.2812C43.7031 60.2083 43.7917 60.1354 43.875 60.0625C43.9688 59.9792 44.0573 59.901 44.1406 59.8281C44.3073 59.6719 44.5052 59.5417 44.7344 59.4375C44.8594 59.4167 44.9531 59.3698 45.0156 59.2969C45.0573 59.2448 45.1302 59.1667 45.2344 59.0625C45.3594 59.0833 45.4531 59.0729 45.5156 59.0312C45.5573 59.0104 45.599 58.9896 45.6406 58.9688C45.6927 58.9479 45.7448 58.9271 45.7969 58.9062C46.0885 58.9688 46.3229 59.0833 46.5 59.25C46.6771 59.4167 46.849 59.5833 47.0156 59.75C47.1615 59.8125 47.276 59.8698 47.3594 59.9219C47.4427 59.974 47.526 60.0312 47.6094 60.0938C47.6927 60.2604 47.7656 60.4167 47.8281 60.5625C47.8906 60.7083 47.9219 60.875 47.9219 61.0625C47.9219 61.1458 47.9115 61.2708 47.8906 61.4375C47.8802 61.5 47.8698 61.5625 47.8594 61.625C47.849 61.6875 47.8385 61.75 47.8281 61.8125C47.7448 62.0625 47.7135 62.1979 47.7344 62.2188C47.7552 62.2396 47.7656 62.2708 47.7656 62.3125C47.7865 62.5 47.7292 62.6719 47.5938 62.8281C47.4583 62.9948 47.4219 63.1771 47.4844 63.375C47.5052 63.4583 47.4792 63.6146 47.4062 63.8438C47.3333 64.0729 47.3073 64.2292 47.3281 64.3125C47.3698 64.4271 47.3906 64.5885 47.3906 64.7969C47.3906 65.0052 47.4427 65.1458 47.5469 65.2188C47.7656 65.3021 47.9115 65.3438 47.9844 65.3438H48.2031C48.4531 65.2188 48.7656 65.0052 49.1406 64.7031C49.5156 64.401 49.7969 64.1458 49.9844 63.9375C50.0885 63.8542 50.1875 63.7708 50.2812 63.6875C50.375 63.6042 50.4635 63.526 50.5469 63.4531C50.7448 63.276 50.974 63.125 51.2344 63C51.5052 62.8125 51.6719 62.6823 51.7344 62.6094L52.1406 62.1562C52.2031 62.0938 52.2812 62.0312 52.375 61.9688C52.4688 61.9062 52.5573 61.8333 52.6406 61.75C52.8073 61.5833 52.974 61.4688 53.1406 61.4062H53.5C53.6458 61.4062 53.7448 61.4479 53.7969 61.5312C53.8385 61.6979 53.8385 61.8438 53.7969 61.9688C53.7552 62.0938 53.7031 62.2083 53.6406 62.3125C53.5677 62.4271 53.474 62.5417 53.3594 62.6562C53.276 62.8125 53.1823 62.9479 53.0781 63.0625C53.026 63.1146 52.9688 63.1719 52.9062 63.2344C52.8542 63.2865 52.7969 63.349 52.7344 63.4219C52.6094 63.5677 52.4635 63.6771 52.2969 63.75C52.2448 63.8125 52.1927 63.8698 52.1406 63.9219C52.099 63.974 52.0521 64.026 52 64.0781L51.7031 64.375C51.5885 64.4896 51.4948 64.6042 51.4219 64.7188C51.349 64.8333 51.2552 64.9479 51.1406 65.0625C51.026 65.1562 50.9115 65.25 50.7969 65.3438C50.6927 65.4375 50.5833 65.526 50.4688 65.6094C50.25 65.776 50.0469 65.9792 49.8594 66.2188C49.7656 66.2604 49.6823 66.3073 49.6094 66.3594C49.5677 66.3906 49.4948 66.4375 49.3906 66.5C49.1302 66.5729 48.8646 66.724 48.5938 66.9531C48.3333 67.1823 48.0625 67.3958 47.7812 67.5938C47.5104 67.7812 47.224 67.8646 46.9219 67.8438C46.6927 67.9479 46.4948 67.9531 46.3281 67.8594C46.1615 67.7656 45.9948 67.6667 45.8281 67.5625C45.599 67.4167 45.3802 67.25 45.1719 67.0625C44.9635 66.875 44.8385 66.6146 44.7969 66.2812C44.7552 65.7396 44.8177 65.2292 44.9844 64.75C45.1615 64.2604 45.2865 63.7812 45.3594 63.3125C45.3594 63.2604 45.3906 63.0729 45.4531 62.75C45.526 62.4167 45.5365 62.1979 45.4844 62.0938C45.4531 62.0521 45.4271 61.9792 45.4062 61.875C45.3958 61.7708 45.3073 61.6667 45.1406 61.5625C45.0469 61.5104 45.0052 61.5 45.0156 61.5312C45.026 61.5729 44.9427 61.5938 44.7656 61.5938C44.5885 61.6562 44.4427 61.7396 44.3281 61.8438C44.2656 61.8958 44.1979 61.9479 44.125 62C44.0625 62.0521 43.9948 62.1042 43.9219 62.1562C43.7344 62.375 43.5 62.5833 43.2188 62.7812C42.9688 62.9583 42.7448 63.1771 42.5469 63.4375C42.3802 63.625 42.224 63.8125 42.0781 64C41.9531 64.1667 41.7865 64.3542 41.5781 64.5625C40.9948 65.2292 40.4219 65.8438 39.8594 66.4062C39.7865 66.4896 39.7135 66.5729 39.6406 66.6562C39.5781 66.7396 39.5156 66.8229 39.4531 66.9062C39.3906 66.9896 39.3229 67.0729 39.25 67.1562C39.1875 67.2396 39.1198 67.3229 39.0469 67.4062C38.7969 67.7188 38.526 68.0208 38.2344 68.3125C38.1094 68.5208 37.9323 68.7188 37.7031 68.9062C37.474 69.0938 37.2448 69.2292 37.0156 69.3125C36.9531 69.2708 36.8854 69.2708 36.8125 69.3125C36.7396 69.3542 36.6719 69.375 36.6094 69.375C36.4844 69.3229 36.3854 69.2812 36.3125 69.25C36.2396 69.2292 36.1927 69.2135 36.1719 69.2031C36.1302 69.1823 36.099 69.1354 36.0781 69.0625C35.8698 68.9375 35.7917 68.7344 35.8438 68.4531C35.8958 68.1719 35.9427 67.9271 35.9844 67.7188C36.0885 67.25 36.2135 66.7812 36.3594 66.3125C36.5052 65.8438 36.6667 65.3802 36.8438 64.9219C37.0208 64.4635 37.1823 64.0052 37.3281 63.5469C37.474 63.0885 37.599 62.6354 37.7031 62.1875C37.8073 61.8333 37.9115 61.5052 38.0156 61.2031C38.1198 60.901 38.2448 60.5833 38.3906 60.25C38.5469 59.9167 38.6458 59.6198 38.6875 59.3594C38.7292 59.099 38.8281 58.8021 38.9844 58.4688C39.0781 58.3021 39.151 58.1458 39.2031 58C39.2656 57.8229 39.3281 57.6667 39.3906 57.5312C39.6302 57.1042 39.849 56.5885 40.0469 55.9844C40.2552 55.3698 40.474 54.8229 40.7031 54.3438C40.9531 53.6771 41.2135 53.0312 41.4844 52.4062C41.7552 51.7812 42.0573 51.1667 42.3906 50.5625C42.5885 49.7604 42.9115 49.0104 43.3594 48.3125C43.5677 48.0417 43.7083 47.8229 43.7812 47.6562C43.875 47.4479 43.9635 47.2917 44.0469 47.1875C44.2969 46.8854 44.5781 46.651 44.8906 46.4844C45.1927 46.3177 45.4635 46.0833 45.7031 45.7812C45.8802 45.6979 46.0417 45.6354 46.1875 45.5938C46.2708 45.5729 46.349 45.5521 46.4219 45.5312C46.4948 45.5 46.5677 45.4688 46.6406 45.4375C46.7031 45.5 46.7344 45.625 46.7344 45.8125C46.776 45.8125 46.7865 45.875 46.7656 46C46.7448 46.125 46.7448 46.2292 46.7656 46.3125C46.7656 46.6042 46.7396 46.8125 46.6875 46.9375L46.5469 47.2812C46.526 47.4479 46.5156 47.5573 46.5156 47.6094C46.5156 47.6823 46.5052 47.7708 46.4844 47.875C46.4219 48.0729 46.3958 48.1823 46.4062 48.2031C46.4167 48.224 46.4219 48.2604 46.4219 48.3125C46.4219 48.3542 46.4115 48.4479 46.3906 48.5938C46.3698 48.7396 46.3594 48.8438 46.3594 48.9062C46.349 49.1146 46.2917 49.3542 46.1875 49.625C46.1042 49.8542 46.026 50.0833 45.9531 50.3125C45.8281 50.4583 45.7552 50.5729 45.7344 50.6562C45.7135 50.7396 45.6719 50.7917 45.6094 50.8125C45.5469 50.9896 45.4844 51.1667 45.4219 51.3438C45.3698 51.5104 45.3177 51.6771 45.2656 51.8438C45.1615 52.1667 45.0052 52.4792 44.7969 52.7812C44.724 53 44.6146 53.224 44.4688 53.4531C44.3958 53.5573 44.3281 53.6667 44.2656 53.7812C44.2135 53.8854 44.1615 53.9896 44.1094 54.0938L43.9688 54.3906C43.9062 54.5156 43.8594 54.6146 43.8281 54.6875C43.6823 54.9583 43.5312 55.2344 43.375 55.5156C43.2188 55.7969 43.0365 56.0521 42.8281 56.2812C42.4531 57.0729 42.0573 57.8698 41.6406 58.6719C41.224 59.474 40.8177 60.25 40.4219 61C40.349 61.1146 40.2865 61.224 40.2344 61.3281C40.1823 61.4219 40.1406 61.5104 40.1094 61.5938C40.0573 61.7083 40.0208 61.8385 40 61.9844C39.9792 62.1094 39.9219 62.2188 39.8281 62.3125C39.7969 62.4062 39.7656 62.5 39.7344 62.5938C39.7031 62.6771 39.6771 62.7604 39.6562 62.8438C39.6146 63.0104 39.5365 63.1667 39.4219 63.3125C39.349 63.7188 39.2188 64.1094 39.0312 64.4844C38.8542 64.8385 38.7135 65.2188 38.6094 65.625ZM67.4219 58.9688C67.526 58.9792 67.5938 59.0208 67.625 59.0938C67.6562 59.1562 67.7135 59.1875 67.7969 59.1875C67.8385 59.3854 67.7969 59.526 67.6719 59.6094C67.5469 59.6823 67.5052 59.8021 67.5469 59.9688C67.3594 60.0938 67.1302 60.1719 66.8594 60.2031C66.5781 60.2344 66.3698 60.3438 66.2344 60.5312C65.8698 60.7083 65.4896 60.8177 65.0938 60.8594C64.8958 60.8802 64.6875 60.9115 64.4688 60.9531C64.2604 60.9844 64.0469 61.0208 63.8281 61.0625C63.599 61.2188 63.4583 61.3021 63.4062 61.3125C63.3333 61.3229 63.2552 61.3542 63.1719 61.4062C62.9531 61.3229 62.7344 61.2812 62.5156 61.2812C62.2969 61.2812 62.0677 61.25 61.8281 61.1875C61.7135 61.2292 61.5938 61.25 61.4688 61.25C61.3438 61.25 61.224 61.2708 61.1094 61.3125C61.026 61.5 60.9844 61.6875 60.9844 61.875C60.9844 62.0729 60.9531 62.2604 60.8906 62.4375L60.7031 62.8125L60.6562 63.1094C60.6354 63.2344 60.6094 63.3333 60.5781 63.4062C60.5365 63.4688 60.4896 63.5417 60.4375 63.625C60.3854 63.7083 60.3594 63.8021 60.3594 63.9062C60.2135 64.0938 60.1094 64.2865 60.0469 64.4844C59.9844 64.7135 59.8698 64.8958 59.7031 65.0312C59.6406 65.25 59.5417 65.4167 59.4062 65.5312C59.2708 65.6562 59.1406 65.8021 59.0156 65.9688C58.7865 66.2812 58.5833 66.5521 58.4062 66.7812C58.2292 67.0104 57.9948 67.2083 57.7031 67.375C57.599 67.5417 57.474 67.6562 57.3281 67.7188C57.224 67.8229 57.1406 67.9271 57.0781 68.0312L56.4531 68.4062C56.2031 68.5625 55.9635 68.6667 55.7344 68.7188C55.3802 68.8021 55.0365 68.7917 54.7031 68.6875C54.3698 68.5833 54.0573 68.4375 53.7656 68.25C53.5677 68.2708 53.4167 68.2344 53.3125 68.1406C53.2083 68.0573 53.0677 67.9896 52.8906 67.9375C52.6615 67.7292 52.4115 67.5417 52.1406 67.375C51.8594 67.1979 51.6615 66.9688 51.5469 66.6875L51.4062 66C51.3646 65.7917 51.3177 65.5833 51.2656 65.375C51.224 65.1979 51.2188 65 51.25 64.7812C51.2812 64.5938 51.2865 64.3854 51.2656 64.1562C51.2656 64.0417 51.2656 63.9375 51.2656 63.8438C51.2656 63.7396 51.2604 63.651 51.25 63.5781C51.2396 63.4219 51.2865 63.2292 51.3906 63C51.4531 62.8646 51.5052 62.7396 51.5469 62.625C51.5885 62.5104 51.6198 62.4115 51.6406 62.3281C51.6615 62.2448 51.6823 62.1667 51.7031 62.0938C51.724 62.0104 51.7448 61.9375 51.7656 61.875C51.7969 61.8229 51.8281 61.7708 51.8594 61.7188C51.8906 61.6562 51.9219 61.5938 51.9531 61.5312C51.9844 61.4688 52.0156 61.4115 52.0469 61.3594C52.0885 61.2969 52.1302 61.2396 52.1719 61.1875C52.2969 61 52.4427 60.8125 52.6094 60.625C52.776 60.4375 52.9427 60.2604 53.1094 60.0938C53.224 59.9375 53.3385 59.8021 53.4531 59.6875C53.6406 59.5 53.8177 59.3438 53.9844 59.2188C54.151 59.0938 54.3385 58.9271 54.5469 58.7188C54.5885 58.6562 54.6406 58.6042 54.7031 58.5625L54.8906 58.4375C55.099 58.3125 55.2917 58.2083 55.4688 58.125C55.6458 58.0417 55.849 57.9479 56.0781 57.8438C56.276 57.75 56.4375 57.6927 56.5625 57.6719C56.6458 57.651 56.7292 57.6354 56.8125 57.625C56.9062 57.6042 57.0052 57.5833 57.1094 57.5625H57.4844C57.599 57.5625 57.7031 57.5417 57.7969 57.5C57.7344 57.3333 57.8073 57.2188 58.0156 57.1562C58.224 57.0938 58.3802 57.0729 58.4844 57.0938C58.6927 57.0938 58.8594 57.1406 58.9844 57.2344C59.1094 57.3281 59.224 57.4375 59.3281 57.5625C59.5365 57.7083 59.7656 57.9271 60.0156 58.2188C60.0677 58.2708 60.1198 58.3021 60.1719 58.3125C60.224 58.3229 60.276 58.3542 60.3281 58.4062C60.4115 58.5312 60.4688 58.6458 60.5 58.75C60.5312 58.875 60.599 58.9896 60.7031 59.0938C60.7656 59.1354 60.8281 59.1875 60.8906 59.25C60.9531 59.3125 60.9948 59.3958 61.0156 59.5C61.2344 59.5833 61.4323 59.6458 61.6094 59.6875C61.7031 59.7292 61.8125 59.7396 61.9375 59.7188C62.0521 59.6979 62.1823 59.6979 62.3281 59.7188C62.4219 59.7292 62.5156 59.7552 62.6094 59.7969C62.6927 59.8281 62.7865 59.8438 62.8906 59.8438C63.0469 59.8333 63.2188 59.7917 63.4062 59.7188C63.5833 59.6562 63.7865 59.6458 64.0156 59.6875C64.3281 59.7604 64.6562 59.7292 65 59.5938C65.3438 59.4479 65.6927 59.3542 66.0469 59.3125C66.151 59.3125 66.224 59.3073 66.2656 59.2969C66.3073 59.2865 66.3802 59.2812 66.4844 59.2812C66.5885 59.1979 66.724 59.1354 66.8906 59.0938C67.0573 59.0521 67.2344 59.0104 67.4219 58.9688ZM58.4844 59.9062C58.276 59.7188 58.1562 59.599 58.125 59.5469C58.0833 59.4844 58.0469 59.4479 58.0156 59.4375C57.9219 59.3438 57.8177 59.2917 57.7031 59.2812C57.6406 59.2708 57.5781 59.2604 57.5156 59.25C57.4635 59.2396 57.4115 59.2292 57.3594 59.2188C57.026 59.1562 56.75 59.1927 56.5312 59.3281C56.4271 59.401 56.3177 59.4688 56.2031 59.5312C56.099 59.5938 55.9948 59.6562 55.8906 59.7188C55.5573 59.9271 55.2656 60.1875 55.0156 60.5C54.9531 60.6042 54.8854 60.7188 54.8125 60.8438C54.7396 60.9688 54.6823 61.1042 54.6406 61.25C54.5573 61.4167 54.4844 61.5677 54.4219 61.7031C54.3594 61.8385 54.3073 62 54.2656 62.1875C54.1615 62.3854 54.099 62.5573 54.0781 62.7031C54.0677 62.776 54.0573 62.8438 54.0469 62.9062C54.0365 62.9583 54.026 63.0104 54.0156 63.0625C54.0052 63.1667 53.9896 63.276 53.9688 63.3906C53.9479 63.4948 53.9271 63.6042 53.9062 63.7188C53.8542 63.9792 53.8281 64.1771 53.8281 64.3125C53.849 64.375 53.8802 64.4583 53.9219 64.5625C53.9635 64.6667 54.0052 64.7396 54.0469 64.7812C54.0885 64.8854 54.1354 65 54.1875 65.125C54.2396 65.25 54.2865 65.3438 54.3281 65.4062C54.4427 65.5521 54.5781 65.6458 54.7344 65.6875C54.8177 65.7083 54.9062 65.7344 55 65.7656C55.0938 65.7865 55.1927 65.8125 55.2969 65.8438C55.526 65.9688 55.6823 66.0208 55.7656 66C55.8698 65.9792 55.9323 65.9688 55.9531 65.9688C56.2344 65.9167 56.474 65.8021 56.6719 65.625C56.849 65.4583 57.0573 65.3125 57.2969 65.1875C57.3802 65.0625 57.4635 64.9323 57.5469 64.7969C57.6406 64.6615 57.7396 64.526 57.8438 64.3906C57.9479 64.2448 58.0417 64.1042 58.125 63.9688C58.2188 63.8229 58.3073 63.6771 58.3906 63.5312C58.4427 63.4688 58.4948 63.375 58.5469 63.25C58.5677 63.1979 58.5885 63.151 58.6094 63.1094C58.6302 63.0573 58.651 63.0104 58.6719 62.9688C58.8177 62.7917 58.8854 62.6979 58.875 62.6875C58.8646 62.6771 58.8698 62.6458 58.8906 62.5938C59.026 62.2812 59.0885 62.0417 59.0781 61.875C59.0677 61.7083 59.0677 61.5417 59.0781 61.375C59.026 61.2604 58.9792 61.1406 58.9375 61.0156C58.8958 60.8906 58.8542 60.7604 58.8125 60.625C58.7292 60.3438 58.6198 60.1042 58.4844 59.9062ZM72.2656 64.375C72.6198 64.2708 72.974 64.1771 73.3281 64.0938C73.6823 64.0104 74.0469 63.9479 74.4219 63.9062C74.7552 63.8854 75.099 63.8229 75.4531 63.7188L75.8906 63.5781C75.9635 63.5573 76.0312 63.5365 76.0938 63.5156C76.1667 63.4844 76.2344 63.4583 76.2969 63.4375C76.4427 63.3958 76.5833 63.3594 76.7188 63.3281C76.8542 63.2969 76.974 63.2708 77.0781 63.25C77.2448 63.375 77.3229 63.4427 77.3125 63.4531C77.3021 63.4635 77.3177 63.4896 77.3594 63.5312L77.1094 63.9688C77.026 64.0312 76.9271 64.0729 76.8125 64.0938C76.7083 64.1042 76.599 64.1354 76.4844 64.1875C76.3802 64.25 76.3177 64.2917 76.2969 64.3125C76.2448 64.3646 76.2031 64.3958 76.1719 64.4062C76.0781 64.4271 76.0104 64.4219 75.9688 64.3906C75.9062 64.349 75.8594 64.3229 75.8281 64.3125C75.3177 64.6458 74.7448 64.875 74.1094 65C73.4427 65.125 72.8281 65.2812 72.2656 65.4688C72.0573 65.5729 71.849 65.6823 71.6406 65.7969C71.4323 65.9115 71.2135 66.0417 70.9844 66.1875C70.8177 66.5208 70.5833 66.8438 70.2812 67.1562C69.9792 67.4688 69.6719 67.7396 69.3594 67.9688C69.276 68.0312 69.2083 68.0781 69.1562 68.1094C69.1146 68.1302 69.0781 68.151 69.0469 68.1719C69.026 68.1927 69.0052 68.2083 68.9844 68.2188C68.9115 68.25 68.8333 68.276 68.75 68.2969C68.6667 68.3281 68.5833 68.3542 68.5 68.375C68.4167 68.3958 68.3333 68.4167 68.25 68.4375C68.1667 68.4583 68.0885 68.4792 68.0156 68.5C67.8906 68.625 67.7865 68.6875 67.7031 68.6875C67.5677 68.7083 67.4427 68.6875 67.3281 68.625C67.1927 68.5521 67.0573 68.5104 66.9219 68.5C66.8177 68.3125 66.7552 68.1823 66.7344 68.1094C66.7135 68.0573 66.6719 68.0208 66.6094 68C66.5573 67.7917 66.4375 67.5938 66.25 67.4062C66.0729 67.2292 65.9323 67.0312 65.8281 66.8125C65.7865 66.7292 65.75 66.6406 65.7188 66.5469C65.6875 66.4531 65.6719 66.3646 65.6719 66.2812C65.6927 66.0521 65.7865 65.8542 65.9531 65.6875C66.1198 65.5208 66.2865 65.3854 66.4531 65.2812C66.5781 65.4688 66.6875 65.5417 66.7812 65.5C66.875 65.4583 66.9531 65.4167 67.0156 65.375C67.0885 65.3438 67.1771 65.3177 67.2812 65.2969L67.4844 65.25C67.7969 65.1771 68.1302 65.1146 68.4844 65.0625C68.7135 65.0417 68.8906 65.0469 69.0156 65.0781C69.1719 65.1094 69.3385 65.1042 69.5156 65.0625C69.6198 64.875 69.75 64.6979 69.9062 64.5312C70.0625 64.3646 70.2135 64.2083 70.3594 64.0625C70.4635 63.8125 70.599 63.5417 70.7656 63.25C70.9323 62.9583 71.099 62.6771 71.2656 62.4062L71.5469 61.8438C71.5885 61.8021 71.625 61.7604 71.6562 61.7188C71.6875 61.6771 71.724 61.6146 71.7656 61.5312C71.8073 61.3646 71.8229 61.2031 71.8125 61.0469C71.8021 60.8906 71.7865 60.7188 71.7656 60.5312C71.5677 60.4167 71.3698 60.2604 71.1719 60.0625C71.0469 60.1146 70.9271 60.1146 70.8125 60.0625C70.6979 60.0104 70.5781 60.0104 70.4531 60.0625C70.3906 60.0729 70.3281 60.1042 70.2656 60.1562C70.2344 60.1771 70.1979 60.1979 70.1562 60.2188C70.125 60.2396 70.0885 60.2604 70.0469 60.2812C69.8594 60.3854 69.6562 60.4792 69.4375 60.5625C69.2188 60.6354 69.0469 60.7604 68.9219 60.9375C68.8073 61.0521 68.7031 61.1615 68.6094 61.2656C68.5156 61.3594 68.4323 61.4479 68.3594 61.5312C68.2865 61.6146 68.2083 61.7031 68.125 61.7969C68.0521 61.8802 67.974 61.9688 67.8906 62.0625C67.7865 62.1458 67.6979 62.2188 67.625 62.2812C67.5625 62.3333 67.5208 62.3802 67.5 62.4219C67.4688 62.474 67.4219 62.5312 67.3594 62.5938C67.2969 62.6562 67.2344 62.7188 67.1719 62.7812C67.1094 62.8333 67.0469 62.8854 66.9844 62.9375C66.8594 63.0417 66.7448 63.1562 66.6406 63.2812C66.5781 63.3646 66.5208 63.4219 66.4688 63.4531C66.4167 63.4844 66.3594 63.5417 66.2969 63.625C66.1719 63.7604 66.0625 63.9167 65.9688 64.0938C65.8854 64.25 65.7865 64.4167 65.6719 64.5938L65.0469 65.5938C64.9323 65.9167 64.8073 66.2396 64.6719 66.5625C64.5469 66.875 64.4115 67.1823 64.2656 67.4844C64.1198 67.7865 63.9792 68.099 63.8438 68.4219C63.7188 68.7448 63.599 69.0729 63.4844 69.4062C63.4427 69.625 63.4115 69.7448 63.3906 69.7656C63.3698 69.7865 63.3594 69.8125 63.3594 69.8438C63.3385 69.9271 63.3229 70.0052 63.3125 70.0781C63.2917 70.151 63.2708 70.224 63.25 70.2969C63.2188 70.4323 63.1719 70.5625 63.1094 70.6875C63.0677 70.8542 63.0052 71.026 62.9219 71.2031C62.8385 71.3802 62.7552 71.5521 62.6719 71.7188C62.5365 72.0521 62.4115 72.3698 62.2969 72.6719C62.1719 73.0156 62.0469 73.3438 61.9219 73.6562C61.8698 73.7708 61.8229 73.8854 61.7812 74C61.7396 74.1146 61.6979 74.2292 61.6562 74.3438L61.4219 75.0312C61.3698 75.1458 61.3333 75.2708 61.3125 75.4062C61.3021 75.4688 61.2917 75.5312 61.2812 75.5938C61.2708 75.6562 61.2552 75.7188 61.2344 75.7812C61.1719 76 61.0938 76.2396 61 76.5C60.8958 76.7708 60.8385 77.0104 60.8281 77.2188C60.526 77.5104 60.3177 77.7604 60.2031 77.9688C59.974 78.1979 59.7344 78.401 59.4844 78.5781C59.2344 78.7552 58.9531 78.9062 58.6406 79.0312C58.4427 79.0312 58.1875 79.0104 57.875 78.9688C57.5521 78.9375 57.3906 78.8021 57.3906 78.5625C57.3698 78.375 57.375 78.1354 57.4062 77.8438C57.4375 77.5521 57.5052 77.3021 57.6094 77.0938C57.6927 76.8646 57.7812 76.6458 57.875 76.4375C57.9688 76.2292 58.0573 76.0521 58.1406 75.9062C58.2656 75.3646 58.4219 74.9062 58.6094 74.5312C58.6615 74.4167 58.7135 74.3073 58.7656 74.2031C58.8177 74.099 58.8698 73.9948 58.9219 73.8906C59.0365 73.6719 59.1302 73.4583 59.2031 73.25C59.2552 73.1042 59.2865 72.9479 59.2969 72.7812C59.3073 72.6146 59.3698 72.4688 59.4844 72.3438C59.6302 71.9896 59.8125 71.6562 60.0312 71.3438C60.25 71.0312 60.474 70.7188 60.7031 70.4062C60.8177 70.2292 60.9115 70.0573 60.9844 69.8906C61.0677 69.7135 61.1615 69.5417 61.2656 69.375C61.4531 69.0521 61.6094 68.7188 61.7344 68.375C61.8594 68.0208 62.0365 67.6979 62.2656 67.4062C62.3177 67.2917 62.3698 67.1823 62.4219 67.0781C62.474 66.974 62.526 66.8698 62.5781 66.7656L62.8906 66.1562C62.9219 66.0833 62.9583 65.974 63 65.8281C63.0417 65.6823 63.0781 65.5729 63.1094 65.5C63.1719 65.4062 63.2344 65.3125 63.2969 65.2188C63.349 65.1146 63.401 65.0104 63.4531 64.9062C63.6406 64.4896 63.8333 64.0781 64.0312 63.6719C64.2292 63.2656 64.4531 62.8646 64.7031 62.4688C64.7135 62.25 64.7708 62.0417 64.875 61.8438C64.9271 61.75 64.974 61.651 65.0156 61.5469C65.0573 61.4427 65.099 61.3333 65.1406 61.2188C65.2031 61.0417 65.25 60.8646 65.2812 60.6875C65.3229 60.4688 65.3594 60.2917 65.3906 60.1562C65.4531 59.9688 65.526 59.8229 65.6094 59.7188C65.724 59.5729 65.8177 59.4167 65.8906 59.25C65.9115 59.2188 65.9323 59.1875 65.9531 59.1562C65.974 59.125 65.9948 59.0885 66.0156 59.0469C66.0365 59.0052 66.0573 58.9688 66.0781 58.9375C66.099 58.9062 66.1198 58.875 66.1406 58.8438C66.2031 58.7188 66.25 58.6094 66.2812 58.5156C66.3021 58.4427 66.3594 58.3438 66.4531 58.2188C66.7031 57.9271 66.8646 57.7656 66.9375 57.7344C66.9896 57.7135 67.0417 57.6875 67.0938 57.6562C67.1458 57.6146 67.2031 57.5729 67.2656 57.5312C67.6823 57.5104 67.9427 57.6094 68.0469 57.8281C68.151 58.0469 68.2448 58.2708 68.3281 58.5C68.2865 58.6667 68.2448 58.8333 68.2031 59C68.1615 59.1667 68.1198 59.3646 68.0781 59.5938C68.1615 59.5208 68.2448 59.4479 68.3281 59.375C68.4219 59.2917 68.5208 59.2083 68.625 59.125C68.8333 58.9479 69.0156 58.7812 69.1719 58.625C69.349 58.5208 69.5208 58.4115 69.6875 58.2969C69.8646 58.1823 70.0365 58.0677 70.2031 57.9531C70.5365 57.7135 70.9115 57.5104 71.3281 57.3438C71.4323 57.3021 71.5417 57.2604 71.6562 57.2188C71.7708 57.1771 71.8802 57.1562 71.9844 57.1562C72.0781 57.1562 72.1667 57.1823 72.25 57.2344C72.3542 57.2969 72.4531 57.3333 72.5469 57.3438C72.6615 57.4583 72.7812 57.5573 72.9062 57.6406C73.0208 57.7135 73.1406 57.8229 73.2656 57.9688C73.349 58.0729 73.4115 58.1979 73.4531 58.3438C73.474 58.4167 73.4948 58.4896 73.5156 58.5625C73.5365 58.6354 73.5573 58.7083 73.5781 58.7812C73.599 58.8542 73.6198 58.9271 73.6406 59C73.6719 59.0729 73.7083 59.1458 73.75 59.2188C73.8229 59.3542 73.8698 59.4896 73.8906 59.625C73.8906 59.6875 73.8802 59.7917 73.8594 59.9375C73.8385 60.0833 73.8281 60.1875 73.8281 60.25C73.8281 60.3333 73.8333 60.3958 73.8438 60.4375C73.8542 60.4792 73.8594 60.5625 73.8594 60.6875C73.849 60.8854 73.7656 61.1458 73.6094 61.4688L73.2344 62.25C73.1927 62.3333 73.151 62.4167 73.1094 62.5C73.0781 62.5729 73.0469 62.6458 73.0156 62.7188L72.7969 63.1875C72.6927 63.4167 72.599 63.625 72.5156 63.8125C72.4323 64 72.349 64.1875 72.2656 64.375ZM82.9844 52.3438L83.2969 52.4375C83.3385 52.4896 83.3594 52.5521 83.3594 52.625C83.3594 52.6771 83.3906 52.7292 83.4531 52.7812C83.4115 52.9688 83.375 53.1615 83.3438 53.3594C83.3125 53.5573 83.2969 53.75 83.2969 53.9375C83.2969 54.0104 83.3229 54.0833 83.375 54.1562C83.4271 54.2292 83.4531 54.2917 83.4531 54.3438C83.349 54.5833 83.2708 54.7292 83.2188 54.7812C83.1667 54.8333 83.1406 54.8854 83.1406 54.9375C83.0365 54.9792 82.9583 55.0417 82.9062 55.125C82.8542 55.2083 82.7656 55.25 82.6406 55.25C82.599 55.3125 82.5521 55.3594 82.5 55.3906C82.4375 55.4323 82.401 55.4896 82.3906 55.5625C82.0469 55.7083 81.6719 55.6979 81.2656 55.5312C81.151 55.3333 81.0052 55.1979 80.8281 55.125C80.5573 54.7292 80.5469 54.2604 80.7969 53.7188C80.8385 53.6146 80.8854 53.5052 80.9375 53.3906C80.9896 53.276 81.0365 53.1979 81.0781 53.1562C81.2969 53 81.4635 52.8958 81.5781 52.8438C81.6198 52.8229 81.6615 52.8021 81.7031 52.7812C81.7552 52.75 81.8021 52.7188 81.8438 52.6875C81.9167 52.6354 82.026 52.5833 82.1719 52.5312C82.2344 52.5104 82.2917 52.5 82.3438 52.5C82.4271 52.5 82.5052 52.4792 82.5781 52.4375C82.6198 52.4271 82.6562 52.4167 82.6875 52.4062C82.7292 52.3958 82.7656 52.3854 82.7969 52.375C82.8802 52.3542 82.9427 52.3438 82.9844 52.3438ZM78.2969 66.1875L78.4531 66.25C78.6406 66.1667 78.8698 66.1354 79.1406 66.1562C79.4219 66.1771 79.6406 66.1354 79.7969 66.0312C79.901 65.9479 79.974 65.8854 80.0156 65.8438C80.0781 65.7812 80.151 65.7604 80.2344 65.7812C80.5677 65.6562 80.849 65.5312 81.0781 65.4062C81.3177 65.2812 81.5677 65.1875 81.8281 65.125C81.9948 65.0625 82.1406 64.9688 82.2656 64.8438C82.6927 64.7083 83.0521 64.5156 83.3438 64.2656C83.6458 64.0156 83.974 63.75 84.3281 63.4688C84.6198 63.3021 84.8646 63.1562 85.0625 63.0312C85.2604 62.9062 85.474 62.75 85.7031 62.5625C85.7552 62.4479 85.8125 62.3698 85.875 62.3281C85.9271 62.2969 85.9844 62.2292 86.0469 62.125C86.4219 62.125 86.6302 62.2708 86.6719 62.5625C86.5677 62.7917 86.4271 62.9792 86.25 63.125C86.0625 63.2812 85.901 63.4479 85.7656 63.625C85.599 63.7292 85.4635 63.8229 85.3594 63.9062C85.2552 63.9896 85.151 64.1146 85.0469 64.2812C85.0365 64.2812 84.974 64.3281 84.8594 64.4219C84.7552 64.5156 84.6927 64.5625 84.6719 64.5625C84.5052 64.7604 84.3802 64.8802 84.2969 64.9219C84.2135 64.9635 84.0677 65.0729 83.8594 65.25C83.724 65.4792 83.5365 65.6667 83.2969 65.8125C82.849 66.2396 82.375 66.599 81.875 66.8906C81.6146 67.0365 81.3698 67.1875 81.1406 67.3438C80.9115 67.4896 80.6927 67.6354 80.4844 67.7812C80.3802 67.8438 80.3073 67.901 80.2656 67.9531C80.224 68.0052 80.151 68.0729 80.0469 68.1562C79.9427 68.2396 79.7812 68.3229 79.5625 68.4062C79.3438 68.4896 79.151 68.5625 78.9844 68.625C78.849 68.7083 78.7344 68.7708 78.6406 68.8125C78.1719 68.8333 77.8177 68.7604 77.5781 68.5938C77.3073 68.4479 77.099 68.3333 76.9531 68.25C76.8073 68.1667 76.6823 68.0312 76.5781 67.8438C76.3385 67.7292 76.1979 67.5365 76.1562 67.2656C76.1354 67.1198 76.1094 66.9792 76.0781 66.8438C76.0469 66.7083 76.0156 66.5729 75.9844 66.4375C75.9635 66.3333 75.9427 66.2135 75.9219 66.0781C75.901 65.9427 75.901 65.8021 75.9219 65.6562C75.974 65.4167 76.0052 65.1719 76.0156 64.9219C76.026 64.6927 76.0781 64.4688 76.1719 64.25C76.2656 64.0417 76.3229 63.8125 76.3438 63.5625C76.3646 63.3125 76.4219 63.0833 76.5156 62.875C76.651 62.6667 76.7083 62.5521 76.6875 62.5312C76.6771 62.5208 76.6823 62.4896 76.7031 62.4375L76.8438 62.25C76.875 62.2083 76.9219 62.1354 76.9844 62.0312L77.1719 61.5625C77.2656 61.3854 77.3594 61.2396 77.4531 61.125C77.5469 61 77.6302 60.8229 77.7031 60.5938C77.7552 60.4479 77.8125 60.3333 77.875 60.25C77.9167 60.1979 77.9531 60.1458 77.9844 60.0938C78.026 60.0312 78.0677 59.9688 78.1094 59.9062C78.1615 59.8021 78.2135 59.6719 78.2656 59.5156C78.2865 59.4427 78.3073 59.375 78.3281 59.3125C78.3594 59.2396 78.3906 59.1667 78.4219 59.0938C78.4844 58.9271 78.5625 58.7604 78.6562 58.5938C78.75 58.4271 78.849 58.2604 78.9531 58.0938C79.0365 57.9271 79.1094 57.8021 79.1719 57.7188C79.2344 57.6354 79.3594 57.5833 79.5469 57.5625C79.6406 57.5417 79.7344 57.5469 79.8281 57.5781C79.9427 57.6094 80.0469 57.6042 80.1406 57.5625C80.4115 57.4375 80.599 57.375 80.7031 57.375C80.8073 57.375 80.8802 57.3438 80.9219 57.2812C81.1406 57.2917 81.3073 57.3646 81.4219 57.5C81.5365 57.625 81.6615 57.75 81.7969 57.875C81.6719 58.4792 81.5312 58.9427 81.375 59.2656C81.2188 59.5885 81.0469 59.9271 80.8594 60.2812C80.7552 60.4479 80.651 60.6354 80.5469 60.8438C80.4427 61.0521 80.349 61.2396 80.2656 61.4062C80.1615 61.6354 80.0521 61.8385 79.9375 62.0156C79.8021 62.224 79.7031 62.4271 79.6406 62.625L79.5 62.9219C79.4375 63.0469 79.3906 63.1458 79.3594 63.2188C79.3385 63.2917 79.3125 63.3646 79.2812 63.4375C79.2604 63.5 79.2292 63.5573 79.1875 63.6094C79.1458 63.6615 79.1094 63.7188 79.0781 63.7812C79.0469 63.8333 79.0156 63.8854 78.9844 63.9375C78.9219 64.0625 78.8594 64.1875 78.7969 64.3125C78.7344 64.4375 78.6823 64.5729 78.6406 64.7188C78.5365 64.9479 78.474 65.099 78.4531 65.1719C78.4427 65.1927 78.4323 65.2188 78.4219 65.25C78.4115 65.2708 78.401 65.2917 78.3906 65.3125C78.349 65.5417 78.2865 65.7292 78.2031 65.875C78.1198 66.0208 78.151 66.125 78.2969 66.1875ZM93.9531 50.75C94.4115 50.8229 94.8073 50.8698 95.1406 50.8906C95.4844 50.9115 95.8594 50.8854 96.2656 50.8125L97.5 50.6406C97.8333 50.599 98.2344 50.5521 98.7031 50.5C98.8281 50.4896 98.9583 50.4896 99.0938 50.5C99.1667 50.5104 99.2344 50.5208 99.2969 50.5312C99.3594 50.5312 99.4219 50.5312 99.4844 50.5312C99.7552 50.5312 100.021 50.5208 100.281 50.5C100.542 50.4792 100.786 50.4583 101.016 50.4375C101.057 50.4271 101.094 50.4167 101.125 50.4062C101.167 50.3958 101.203 50.3854 101.234 50.375C101.297 50.3542 101.359 50.3542 101.422 50.375C101.516 50.375 101.609 50.375 101.703 50.375C101.797 50.375 101.891 50.3698 101.984 50.3594C102.172 50.349 102.339 50.4167 102.484 50.5625C102.547 50.7708 102.568 50.8854 102.547 50.9062C102.516 50.9375 102.495 50.9688 102.484 51C102.464 51.2708 102.427 51.4062 102.375 51.4062C102.323 51.4062 102.297 51.4271 102.297 51.4688C102.13 51.5104 101.99 51.5469 101.875 51.5781C101.76 51.6094 101.672 51.6771 101.609 51.7812C101.255 51.8542 100.927 51.8698 100.625 51.8281C100.323 51.776 100.016 51.8229 99.7031 51.9688C99.5469 52.0417 99.3958 52.1198 99.25 52.2031C99.1042 52.2969 98.9115 52.3021 98.6719 52.2188C98.4635 52.2188 98.224 52.2292 97.9531 52.25C97.6823 52.2708 97.4219 52.2917 97.1719 52.3125C96.8177 52.3438 96.4167 52.3802 95.9688 52.4219C95.5312 52.4531 95.1927 52.474 94.9531 52.4844C94.724 52.4948 94.3958 52.5104 93.9688 52.5312C93.5417 52.5521 93.1615 52.5625 92.8281 52.5625C92.6615 52.6979 92.5521 52.875 92.5 53.0938C92.4479 53.3021 92.3385 53.4688 92.1719 53.5938C91.9844 54.0104 91.849 54.276 91.7656 54.3906C91.6719 54.5156 91.599 54.6771 91.5469 54.875C91.2552 55.25 90.9896 55.6406 90.75 56.0469C90.5312 56.4219 90.2552 56.8021 89.9219 57.1875C89.8802 57.4167 89.8021 57.6198 89.6875 57.7969C89.5833 57.9635 89.5052 58.1979 89.4531 58.5C89.2344 58.7917 89.0677 59.1354 88.9531 59.5312C88.901 59.7188 88.8385 59.9115 88.7656 60.1094C88.7031 60.3073 88.6302 60.5104 88.5469 60.7188C88.5052 60.8854 88.4583 61.0469 88.4062 61.2031C88.3542 61.3594 88.2969 61.5208 88.2344 61.6875C88.1615 61.875 88.0625 62.0677 87.9375 62.2656C87.8854 62.349 87.8281 62.4427 87.7656 62.5469C87.7135 62.6406 87.6615 62.7396 87.6094 62.8438C87.5677 62.8854 87.5469 62.9427 87.5469 63.0156C87.5469 63.0677 87.5365 63.125 87.5156 63.1875C87.4844 63.2604 87.4531 63.3333 87.4219 63.4062C87.3906 63.4688 87.3594 63.526 87.3281 63.5781C87.2865 63.651 87.2344 63.7604 87.1719 63.9062C87.1406 63.9792 87.1146 64.0885 87.0938 64.2344C87.0729 64.3802 87.0469 64.4896 87.0156 64.5625C87.0052 64.5938 86.9948 64.625 86.9844 64.6562C86.974 64.6875 86.9635 64.7135 86.9531 64.7344C86.9427 64.7552 86.9323 64.7812 86.9219 64.8125C86.9115 64.8438 86.901 64.875 86.8906 64.9062C86.8281 65.1979 86.8281 65.3958 86.8906 65.5C86.9531 65.6042 87.0052 65.7083 87.0469 65.8125C87.0677 65.875 87.0885 65.9323 87.1094 65.9844C87.1302 66.0365 87.151 66.0885 87.1719 66.1406C87.224 66.2344 87.2552 66.3333 87.2656 66.4375C87.3177 66.4583 87.3698 66.4792 87.4219 66.5C87.474 66.5208 87.5208 66.5417 87.5625 66.5625C87.6458 66.6042 87.7448 66.625 87.8594 66.625C87.9948 66.6458 88.1302 66.5885 88.2656 66.4531C88.4115 66.3073 88.5365 66.2292 88.6406 66.2188C88.7656 66.1771 88.9062 66.1562 89.0625 66.1562C89.1979 66.1562 89.3177 66.125 89.4219 66.0625C89.4844 66.0104 89.5417 65.9583 89.5938 65.9062C89.6458 65.8542 89.6927 65.8021 89.7344 65.75C89.7969 65.6562 89.9115 65.5833 90.0781 65.5312C90.4115 65.4479 90.5885 65.3802 90.6094 65.3281C90.6198 65.2865 90.6927 65.2083 90.8281 65.0938C90.901 65.0417 90.9688 64.9896 91.0312 64.9375C91.1042 64.8854 91.1667 64.8385 91.2188 64.7969C91.3021 64.724 91.4427 64.625 91.6406 64.5C91.849 64.3958 91.9688 64.3333 92 64.3125C92.0312 64.2917 92.1198 64.2188 92.2656 64.0938C92.3698 64.0417 92.4635 63.9896 92.5469 63.9375C92.6406 63.875 92.724 63.8125 92.7969 63.75C92.9115 63.6458 93.0781 63.5312 93.2969 63.4062C93.5469 63.3021 93.6823 63.2396 93.7031 63.2188C93.7344 63.1875 93.7552 63.151 93.7656 63.1094C93.776 63.0677 93.8906 62.9792 94.1094 62.8438C94.1823 62.6875 94.276 62.5521 94.3906 62.4375C94.4427 62.3854 94.5 62.3281 94.5625 62.2656C94.625 62.1927 94.6927 62.1146 94.7656 62.0312C94.901 61.875 95.0312 61.75 95.1562 61.6562C95.3021 61.5417 95.4219 61.4375 95.5156 61.3438C95.5573 61.3125 95.6094 61.2656 95.6719 61.2031C95.7344 61.1406 95.8073 61.1042 95.8906 61.0938C95.9531 61.0417 96.0052 60.9948 96.0469 60.9531C96.099 60.9115 96.1458 60.8698 96.1875 60.8281C96.2292 60.7865 96.276 60.7396 96.3281 60.6875C96.3906 60.6354 96.4635 60.5729 96.5469 60.5L96.7031 60.3438C96.776 60.2708 96.8281 60.2292 96.8594 60.2188C96.9531 60.2188 97.0208 60.25 97.0625 60.3125C97.1146 60.375 97.1823 60.4062 97.2656 60.4062C97.2552 60.5417 97.2448 60.651 97.2344 60.7344C97.2344 60.8177 97.2344 60.8802 97.2344 60.9219C97.2344 61.0052 97.2135 61.0833 97.1719 61.1562C97.0469 61.3542 96.9062 61.4583 96.75 61.4688C96.5938 61.4896 96.474 61.6042 96.3906 61.8125C96.3281 61.7708 96.25 61.7604 96.1562 61.7812C96.0625 61.8021 95.9948 61.8333 95.9531 61.875C95.9948 61.9479 96.0156 62.0208 96.0156 62.0938C96.0156 62.1354 96.026 62.2083 96.0469 62.3125C95.6615 62.6979 95.4115 63 95.2969 63.2188C95.0365 63.4896 94.901 63.6406 94.8906 63.6719L94.8594 63.7188L94.6094 63.9688C94.3177 64.1979 94.099 64.4167 93.9531 64.625C93.8177 64.8229 93.599 65.0104 93.2969 65.1875C93.0677 65.3542 92.9115 65.4792 92.8281 65.5625C92.7865 65.6042 92.7344 65.6562 92.6719 65.7188C92.6094 65.7708 92.5365 65.8333 92.4531 65.9062C92.401 65.9583 92.3229 66.0469 92.2188 66.1719C92.1146 66.2969 92.026 66.3854 91.9531 66.4375C91.8177 66.5417 91.6771 66.6354 91.5312 66.7188C91.4167 66.7812 91.2969 66.8854 91.1719 67.0312C90.8698 67.1667 90.6458 67.3333 90.5 67.5312C90.3646 67.7083 90.1615 67.8854 89.8906 68.0625C89.7031 68.1875 89.4479 68.3438 89.125 68.5312C88.8021 68.7188 88.526 68.8542 88.2969 68.9375C88.2656 68.9479 88.2344 68.9583 88.2031 68.9688C88.1719 68.9792 88.1458 68.9896 88.125 69C88.1042 69.0104 88.0781 69.0208 88.0469 69.0312C88.0156 69.0417 87.9844 69.0521 87.9531 69.0625C87.7865 68.9583 87.625 68.8542 87.4688 68.75C87.3125 68.6458 87.1823 68.5 87.0781 68.3125C86.8802 68.1667 86.7292 68.0625 86.625 68C86.5 67.9271 86.3906 67.8438 86.2969 67.75C86.1927 67.5729 86.0833 67.3958 85.9688 67.2188C85.8542 67.0417 85.7292 66.8646 85.5938 66.6875C85.3229 66.3229 85.1198 65.9271 84.9844 65.5C84.9531 65.4479 84.9271 65.3594 84.9062 65.2344L84.8594 64.9375C84.8385 64.8542 84.8177 64.776 84.7969 64.7031C84.776 64.6302 84.7552 64.5625 84.7344 64.5C84.6927 64.3958 84.6823 64.2396 84.7031 64.0312C84.7031 63.8854 84.724 63.75 84.7656 63.625C84.7865 63.5521 84.8073 63.4792 84.8281 63.4062C84.849 63.3229 84.8698 63.2396 84.8906 63.1562C84.9323 63.0208 84.9792 62.8906 85.0312 62.7656C85.0833 62.6302 85.1354 62.5 85.1875 62.375C85.3125 62.0938 85.401 61.8229 85.4531 61.5625C85.5781 61.125 85.7135 60.7083 85.8594 60.3125C85.8906 60.2396 85.9167 60.1406 85.9375 60.0156C85.9479 59.9219 86.0052 59.8542 86.1094 59.8125C86.1927 59.3958 86.3281 58.9948 86.5156 58.6094C86.7031 58.224 86.8906 57.8542 87.0781 57.5C87.1927 57.2812 87.3021 57.0625 87.4062 56.8438C87.5104 56.6146 87.6146 56.3854 87.7188 56.1562C87.8229 55.9271 87.9271 55.7031 88.0312 55.4844C88.1354 55.2552 88.2448 55.0312 88.3594 54.8125C88.3698 54.5833 88.4531 54.375 88.6094 54.1875C88.6198 53.9792 88.7031 53.7552 88.8594 53.5156C89.0156 53.276 89.1198 53.0521 89.1719 52.8438C88.9427 52.7812 88.6875 52.776 88.4062 52.8281C88.125 52.8802 87.8802 52.9271 87.6719 52.9688C87.2969 52.9792 86.901 52.9792 86.4844 52.9688C86.4115 52.9583 86.3385 52.9479 86.2656 52.9375C86.2031 52.9167 86.1354 52.901 86.0625 52.8906C85.9271 52.8594 85.7969 52.8438 85.6719 52.8438C85.4844 52.8542 85.3438 52.8385 85.25 52.7969C85.1458 52.7448 85.0469 52.7396 84.9531 52.7812C84.6615 52.5312 84.3646 52.3125 84.0625 52.125C83.75 51.9375 83.5469 51.6979 83.4531 51.4062C83.4531 51.3438 83.4844 51.2917 83.5469 51.25C83.6302 51.1875 83.6823 51.1458 83.7031 51.125C83.8802 51.0729 84.0677 51.0573 84.2656 51.0781C84.4635 51.0885 84.6302 51.0521 84.7656 50.9688C85.0677 51.0104 85.375 50.9896 85.6875 50.9062C85.9688 50.8229 86.2656 50.7917 86.5781 50.8125C86.6198 50.8125 86.6823 50.8229 86.7656 50.8438C86.849 50.8646 86.9115 50.875 86.9531 50.875C87.0573 50.8854 87.1458 50.8854 87.2188 50.875C87.2604 50.8646 87.3021 50.8542 87.3438 50.8438C87.3854 50.8333 87.4323 50.8229 87.4844 50.8125C87.6094 50.7917 87.7448 50.7917 87.8906 50.8125C88.0365 50.8333 88.1823 50.8333 88.3281 50.8125C88.6302 50.7917 88.9583 50.8177 89.3125 50.8906C89.6979 50.9635 90.0365 50.9479 90.3281 50.8438C90.3802 50.6979 90.4323 50.5521 90.4844 50.4062C90.5469 50.25 90.6146 50.099 90.6875 49.9531C90.8333 49.651 90.9427 49.3542 91.0156 49.0625C91.099 48.9375 91.1823 48.7969 91.2656 48.6406C91.349 48.4844 91.4115 48.3333 91.4531 48.1875L91.75 47.6875C91.7917 47.625 91.8333 47.5625 91.875 47.5C91.9167 47.4375 91.9635 47.375 92.0156 47.3125C92.1615 47.0104 92.2708 46.724 92.3438 46.4531C92.3854 46.3073 92.4271 46.1615 92.4688 46.0156C92.5208 45.8594 92.5781 45.6979 92.6406 45.5312C92.776 45.3854 92.9115 45.224 93.0469 45.0469C93.1823 44.8698 93.3177 44.6771 93.4531 44.4688C93.6094 44.4896 93.7292 44.4479 93.8125 44.3438C93.9062 44.2396 94.0469 44.25 94.2344 44.375C94.2344 44.4375 94.2604 44.4948 94.3125 44.5469C94.3646 44.599 94.3698 44.6771 94.3281 44.7812C94.5365 44.9896 94.6719 45.1771 94.7344 45.3438C94.776 45.5104 94.7604 45.7031 94.6875 45.9219C94.6146 46.1406 94.6302 46.3438 94.7344 46.5312C94.776 46.625 94.7865 46.724 94.7656 46.8281C94.7448 46.9427 94.7552 47.0312 94.7969 47.0938C94.849 47.2083 94.9062 47.3125 94.9688 47.4062C95.0417 47.5104 95.0781 47.6458 95.0781 47.8125C95.0781 47.875 95.0625 47.9531 95.0312 48.0469C95 48.1406 94.9635 48.2396 94.9219 48.3438C94.849 48.6562 94.7865 48.875 94.7344 49C94.7135 49.0625 94.6927 49.1302 94.6719 49.2031C94.651 49.2656 94.6302 49.3333 94.6094 49.4062C94.4635 49.5833 94.3906 49.6927 94.3906 49.7344C94.3906 49.7656 94.3802 49.8125 94.3594 49.875C94.3281 49.9375 94.2969 50.0104 94.2656 50.0938C94.2344 50.1667 94.1979 50.2448 94.1562 50.3281C94.1146 50.4115 94.0781 50.4896 94.0469 50.5625C94.0156 50.6354 93.9844 50.6979 93.9531 50.75Z" fill="#0A97B0"/>
</svg>
