<svg width="92" height="66" viewBox="0 0 92 66" fill="none" xmlns="http://www.w3.org/2000/svg">
<path d="M15.875 24.875L16.1875 24.375C16.3021 24.1979 16.3646 24.0469 16.375 23.9219C16.3854 23.7969 16.4479 23.6458 16.5625 23.4688C17.0104 23.2188 17.3854 22.9427 17.6875 22.6406C18.0104 22.3177 18.3958 22.0521 18.8438 21.8438C19.1458 21.6354 19.3802 21.4948 19.5469 21.4219C19.7344 21.3385 19.9062 21.2396 20.0625 21.125C20.1562 21.0833 20.25 21.0417 20.3438 21C20.4375 20.9583 20.526 20.9167 20.6094 20.875C20.8073 20.7812 21.0104 20.7083 21.2188 20.6562C21.4062 20.6042 21.5521 20.5469 21.6562 20.4844C21.7188 20.4427 21.7812 20.4115 21.8438 20.3906C21.9062 20.3594 21.9688 20.3333 22.0312 20.3125C22.3542 20.1979 22.6458 20.1042 22.9062 20.0312C23.0521 19.9896 23.1927 19.9479 23.3281 19.9062C23.474 19.8646 23.6146 19.8229 23.75 19.7812L24.125 19.625C24.2604 19.5625 24.3958 19.5417 24.5312 19.5625C24.75 19.6042 24.8906 19.6146 24.9531 19.5938C25.0156 19.5729 25.0625 19.5625 25.0938 19.5625C25.2708 19.5417 25.4115 19.5625 25.5156 19.625C25.5677 19.6562 25.625 19.6875 25.6875 19.7188C25.7604 19.7396 25.8333 19.7604 25.9062 19.7812C26.0312 19.8229 26.151 19.8542 26.2656 19.875C26.3802 19.8854 26.4896 19.9167 26.5938 19.9688C26.7083 20.0104 26.7969 20.0677 26.8594 20.1406L27.0625 20.3438C27.1667 20.4062 27.2448 20.4583 27.2969 20.5L27.5312 20.6875C27.6146 20.8646 27.7031 21.0417 27.7969 21.2188C27.8906 21.3958 27.9896 21.5729 28.0938 21.75C28.3021 22.1146 28.4062 22.5417 28.4062 23.0312C28.2812 23.2188 28.2083 23.3125 28.1875 23.3125C28.1562 23.3125 28.1354 23.3333 28.125 23.375C28.0104 23.4479 27.9115 23.5208 27.8281 23.5938C27.7448 23.6562 27.6771 23.7135 27.625 23.7656L27.2812 24.125L26.8438 24.5625C26.8021 24.5938 26.7292 24.6302 26.625 24.6719C26.5312 24.7031 26.4792 24.7708 26.4688 24.875C26.3229 24.9375 26.1875 25.0417 26.0625 25.1875C25.9479 25.3229 25.8125 25.4167 25.6562 25.4688C25.4896 25.6771 25.2604 25.8594 24.9688 26.0156C24.8333 26.0885 24.7031 26.1615 24.5781 26.2344C24.4531 26.3073 24.3333 26.3854 24.2188 26.4688L23.7656 26.75C23.6927 26.7917 23.625 26.8438 23.5625 26.9062C23.4479 26.9583 23.3385 27.0104 23.2344 27.0625C23.1302 27.1146 23.0365 27.1667 22.9531 27.2188C22.7865 27.3229 22.5833 27.4167 22.3438 27.5C22.2292 27.5521 22.1302 27.6042 22.0469 27.6562C21.9635 27.7188 21.8438 27.7396 21.6875 27.7188L21.375 27.5781C21.2708 27.526 21.1771 27.5729 21.0938 27.7188C20.8229 27.7604 20.5677 27.7135 20.3281 27.5781C20.0885 27.4427 19.9583 27.25 19.9375 27C19.6875 26.7917 19.6146 26.5104 19.7188 26.1562C19.7604 26 19.8385 25.8333 19.9531 25.6562C20.0052 25.5729 20.0573 25.4948 20.1094 25.4219C20.1615 25.3385 20.2083 25.2604 20.25 25.1875C20.3438 25.0208 20.4375 24.8385 20.5312 24.6406C20.6146 24.4635 20.7083 24.2917 20.8125 24.125C21.1042 23.8125 21.401 23.5208 21.7031 23.25C22.0052 22.9792 22.3854 22.7917 22.8438 22.6875C22.9896 22.6458 23.1354 22.6042 23.2812 22.5625C23.4271 22.5208 23.5625 22.4792 23.6875 22.4375C23.75 22.4792 23.8125 22.4792 23.875 22.4375C23.9375 22.3854 24 22.3854 24.0625 22.4375C24.1458 22.5 24.1771 22.5729 24.1562 22.6562C24.1354 22.7604 24.125 22.8542 24.125 22.9375C23.9896 23.125 23.8021 23.2188 23.5625 23.2188C23.3333 23.2188 23.1979 23.3438 23.1562 23.5938C22.5521 24.1146 22.0312 24.7396 21.5938 25.4688C21.6562 25.5104 21.7396 25.5625 21.8438 25.625C21.9479 25.6875 22.0521 25.7292 22.1562 25.75C22.3229 25.7917 22.5156 25.75 22.7344 25.625C22.9531 25.5 23.125 25.4062 23.25 25.3438C23.8333 25.0729 24.3542 24.7083 24.8125 24.25C24.9375 24.1458 25.0677 24.0312 25.2031 23.9062C25.3385 23.7812 25.4375 23.6562 25.5 23.5312C25.5417 23.4792 25.5781 23.4271 25.6094 23.375C25.651 23.3229 25.6875 23.2708 25.7188 23.2188C25.7812 23.1146 25.8646 23.0312 25.9688 22.9688C26 22.7188 25.9583 22.5312 25.8438 22.4062C25.7292 22.2812 25.599 22.1562 25.4531 22.0312C25.3073 21.8958 25.1979 21.7083 25.125 21.4688C25.0208 21.4271 24.9323 21.3542 24.8594 21.25C24.7865 21.1458 24.6979 21.0729 24.5938 21.0312C24.5729 21.0312 24.5417 21.0312 24.5 21.0312C24.4583 21.0208 24.401 21.0104 24.3281 21L24.0938 20.9688C23.5729 21.0729 23.1667 21.1875 22.875 21.3125C22.5833 21.4375 22.2917 21.5625 22 21.6875C21.3021 22.0625 20.6458 22.5 20.0312 23C20 23.0208 19.9635 23.0417 19.9219 23.0625C19.8906 23.0833 19.8542 23.1042 19.8125 23.125C19.7083 23.1875 19.6458 23.2292 19.625 23.25C19.5417 23.3125 19.4531 23.4167 19.3594 23.5625C19.3177 23.625 19.276 23.6875 19.2344 23.75C19.1927 23.8125 19.1458 23.875 19.0938 23.9375L18.7656 24.3594C18.651 24.5052 18.5729 24.6562 18.5312 24.8125C18.4167 24.875 18.3333 24.9948 18.2812 25.1719C18.2292 25.3594 18.1562 25.5 18.0625 25.5938C18.0104 25.7708 17.9583 25.9219 17.9062 26.0469C17.8542 26.1719 17.8021 26.3333 17.75 26.5312C17.8438 26.7188 17.9271 26.8854 18 27.0312C18.0729 27.1771 18.1302 27.3021 18.1719 27.4062C18.224 27.5104 18.2708 27.6146 18.3125 27.7188C18.3646 27.8229 18.4167 27.9271 18.4688 28.0312C18.4792 28.25 18.5469 28.4531 18.6719 28.6406C18.7865 28.8073 18.8958 29.0104 19 29.25C19.3021 29.75 19.5677 30.2552 19.7969 30.7656C20.026 31.276 20.2917 31.7812 20.5938 32.2812C20.6562 32.4271 20.7188 32.5729 20.7812 32.7188C20.8438 32.8542 20.901 32.9948 20.9531 33.1406C21.0677 33.4323 21.2396 33.6771 21.4688 33.875C21.4896 33.9479 21.5104 34.0208 21.5312 34.0938C21.5625 34.1562 21.599 34.224 21.6406 34.2969C21.6823 34.3698 21.7188 34.4427 21.75 34.5156C21.7812 34.5781 21.8125 34.6458 21.8438 34.7188C21.8854 34.8438 21.9323 34.974 21.9844 35.1094C22.0469 35.2448 22.1146 35.3854 22.1875 35.5312C22.2396 35.6667 22.3125 35.8125 22.4062 35.9688C22.4896 36.0938 22.5521 36.2188 22.5938 36.3438C22.6771 36.5312 22.7448 36.7656 22.7969 37.0469C22.849 37.3281 22.8646 37.5625 22.8438 37.75C22.8438 38.0417 22.8229 38.2188 22.7812 38.2812C22.75 38.3333 22.7031 38.3854 22.6406 38.4375C22.5885 38.4792 22.5312 38.6458 22.4688 38.9375C22.2708 39.2917 22.0521 39.5938 21.8125 39.8438C21.5625 40.1042 21.3438 40.4167 21.1562 40.7812C21.0521 40.9271 20.9167 41.0729 20.75 41.2188L20.3125 41.5938C20.1771 41.6979 20.026 41.7917 19.8594 41.875C19.7135 41.9479 19.5729 42.0521 19.4375 42.1875C19.0833 42.5 18.7135 42.724 18.3281 42.8594C17.9115 43.0156 17.5521 43.1979 17.25 43.4062C17.125 43.4062 17 43.4219 16.875 43.4531C16.75 43.4844 16.625 43.5208 16.5 43.5625C16.3958 43.6042 16.2865 43.6458 16.1719 43.6875C16.0573 43.7292 15.9375 43.7708 15.8125 43.8125C15.6771 43.8646 15.5885 43.9062 15.5469 43.9375C15.5052 43.9583 15.4167 44 15.2812 44.0625C14.9896 44.125 14.6771 44.1615 14.3438 44.1719C14.0104 44.1823 13.6667 44.1458 13.3125 44.0625C12.9167 43.9167 12.6094 43.8542 12.3906 43.875C12.1719 43.8854 11.9792 43.8021 11.8125 43.625C11.7083 43.5833 11.651 43.5312 11.6406 43.4688C11.6302 43.4062 11.5833 43.3438 11.5 43.2812L11.0625 42.9375C10.9792 42.875 10.9167 42.8229 10.875 42.7812C10.5729 42.5312 10.3229 42.2396 10.125 41.9062L9.9375 41.5938C9.86458 41.4688 9.82292 41.375 9.8125 41.3125C9.77083 41.1979 9.76562 41.0677 9.79688 40.9219C9.82812 40.7865 9.80208 40.6562 9.71875 40.5312C9.73958 40.3854 9.73958 40.2292 9.71875 40.0625C9.70833 39.9792 9.70312 39.901 9.70312 39.8281C9.69271 39.7552 9.6875 39.6875 9.6875 39.625C9.6875 39.4583 9.71354 39.2708 9.76562 39.0625C9.81771 38.875 9.8125 38.7292 9.75 38.625C9.79167 38.3542 9.85417 38.151 9.9375 38.0156C10.0208 37.8802 10.125 37.7292 10.25 37.5625C10.4271 37.4792 10.5885 37.401 10.7344 37.3281C10.8906 37.2552 11.026 37.1823 11.1406 37.1094C11.2552 37.0365 11.375 36.9688 11.5 36.9062C11.625 36.8438 11.75 36.7812 11.875 36.7188C12.0104 36.6562 12.099 36.6146 12.1406 36.5938L12.375 36.4688C12.5417 36.375 12.7396 36.2917 12.9688 36.2188C13.2083 36.1458 13.4271 36.0625 13.625 35.9688C13.8229 35.8542 14.0156 35.7604 14.2031 35.6875C14.3906 35.6146 14.5833 35.5208 14.7812 35.4062C14.9167 35.4062 15.0365 35.375 15.1406 35.3125C15.2552 35.25 15.3854 35.2188 15.5312 35.2188C15.5938 35.2188 15.6458 35.224 15.6875 35.2344C15.7292 35.2448 15.7917 35.25 15.875 35.25H16.2188C16.3542 35.25 16.4688 35.2708 16.5625 35.3125C16.6771 35.3542 16.7708 35.4167 16.8438 35.5C16.9271 35.5833 17.0417 35.625 17.1875 35.625C17.3333 35.7708 17.4531 35.9323 17.5469 36.1094C17.6406 36.2865 17.7188 36.4688 17.7812 36.6562C17.8854 36.9271 17.9375 37.2292 17.9375 37.5625C17.9271 37.8646 17.8177 38.1042 17.6094 38.2812C17.4115 38.4479 17.2292 38.6458 17.0625 38.875C16.7708 38.9792 16.4479 39.1562 16.0938 39.4062C15.8854 39.3854 15.6979 39.4219 15.5312 39.5156C15.3542 39.6198 15.1562 39.6979 14.9375 39.75C14.8333 39.7604 14.7188 39.7604 14.5938 39.75C14.4583 39.7292 14.3438 39.7396 14.25 39.7812C14.1667 39.7917 14.0625 39.8333 13.9375 39.9062C13.8229 39.9688 13.7188 39.9792 13.625 39.9375C13.5208 39.8958 13.4427 39.8125 13.3906 39.6875C13.3385 39.5625 13.3333 39.4375 13.375 39.3125C13.5104 39.0938 13.6927 38.9635 13.9219 38.9219C14.1406 38.8802 14.375 38.7917 14.625 38.6562C14.8542 38.5312 15.0365 38.3958 15.1719 38.25C15.2552 38.1667 15.3333 38.0833 15.4062 38C15.4896 37.9167 15.5729 37.8333 15.6562 37.75C15.7708 37.625 15.8958 37.5 16.0312 37.375C16.1771 37.25 16.2083 37.0833 16.125 36.875C15.9375 36.7292 15.724 36.6875 15.4844 36.75C15.2448 36.8125 15.0312 36.8854 14.8438 36.9688C14.6562 37.0521 14.4688 37.1406 14.2812 37.2344C14.0938 37.3177 13.9115 37.4062 13.7344 37.5C13.5573 37.5938 13.375 37.6875 13.1875 37.7812C13.0104 37.8646 12.8333 37.9479 12.6562 38.0312C12.4896 38.0938 12.3646 38.1667 12.2812 38.25C12.2292 38.3125 12.1979 38.3958 12.1875 38.5C12.1771 38.6042 12.1458 38.6979 12.0938 38.7812C11.9479 39.1042 11.9062 39.4167 11.9688 39.7188C12.0208 39.8333 12.0729 39.9323 12.125 40.0156C12.1875 40.1094 12.2188 40.2083 12.2188 40.3125C12.375 40.4688 12.5104 40.625 12.625 40.7812C12.6875 40.8229 12.7396 40.849 12.7812 40.8594C12.8229 40.8698 12.8854 40.8854 12.9688 40.9062C13.1458 41.0208 13.3958 41.1354 13.7188 41.25C13.8438 41.2917 14.0365 41.3542 14.2969 41.4375C14.5573 41.5208 14.7396 41.5625 14.8438 41.5625C14.9583 41.5833 15.0938 41.5625 15.25 41.5L15.6875 41.3438C15.9271 41.2292 16.1667 41.1146 16.4062 41C16.6562 40.875 16.9062 40.75 17.1562 40.625C17.4062 40.5 17.651 40.3802 17.8906 40.2656C18.1406 40.1406 18.3854 40.0208 18.625 39.9062C18.9896 39.6771 19.2708 39.4062 19.4688 39.0938C19.6562 38.8646 19.8125 38.5833 19.9375 38.25C20.0625 37.9167 20.1562 37.5729 20.2188 37.2188C20.2396 37.1146 20.25 37.0365 20.25 36.9844V36.7812C20.125 36.5417 20.0677 36.401 20.0781 36.3594C20.099 36.3073 20.0833 36.2604 20.0312 36.2188C19.875 35.9479 19.7865 35.776 19.7656 35.7031C19.724 35.5781 19.6875 35.4896 19.6562 35.4375C19.5833 35.3229 19.5 35.2188 19.4062 35.125C19.3229 35.0208 19.2292 34.9271 19.125 34.8438C18.9167 34.6667 18.7812 34.4167 18.7188 34.0938C18.5833 33.9792 18.4948 33.8438 18.4531 33.6875C18.4115 33.5312 18.3021 33.4271 18.125 33.375L18.0156 33.1094C18.0052 33.0677 17.9896 33.026 17.9688 32.9844C17.9479 32.9323 17.9271 32.875 17.9062 32.8125C17.7812 32.6667 17.6875 32.5104 17.625 32.3438C17.4792 32.2188 17.375 32.1042 17.3125 32C17.2188 31.8438 17.125 31.7083 17.0312 31.5938C16.8854 31.4479 16.7708 31.3229 16.6875 31.2188C16.6458 31.1667 16.6042 31.1146 16.5625 31.0625C16.5312 31 16.5052 30.9375 16.4844 30.875C16.4427 30.7604 16.3646 30.6458 16.25 30.5312C16.1875 30.4167 16.1094 30.3229 16.0156 30.25C15.9323 30.1771 15.8646 30.0729 15.8125 29.9375C15.5104 29.5833 15.2917 29.1042 15.1562 28.5C15.1979 28.2604 15.1562 28.0417 15.0312 27.8438C14.9062 27.6562 14.875 27.4167 14.9375 27.125C15.0521 26.8125 15.1667 26.5208 15.2812 26.25C15.3438 26.1042 15.401 25.9635 15.4531 25.8281C15.5052 25.6927 15.5521 25.5625 15.5938 25.4375C15.7083 25.3854 15.7708 25.3073 15.7812 25.2031C15.8021 25.0885 15.8333 24.9792 15.875 24.875ZM26.5312 40.625C27 40.2188 27.4427 39.7656 27.8594 39.2656C28.0677 39.026 28.2812 38.7812 28.5 38.5312C28.7188 38.2812 28.9479 38.0312 29.1875 37.7812C29.2917 37.6771 29.3958 37.5521 29.5 37.4062C29.6042 37.2604 29.7083 37.1042 29.8125 36.9375C29.8958 36.8125 30 36.6927 30.125 36.5781C30.2604 36.4531 30.3646 36.3438 30.4375 36.25C30.5 36.1458 30.5781 36.0625 30.6719 36C30.724 35.9688 30.7708 35.9375 30.8125 35.9062C30.8646 35.8646 30.9167 35.8229 30.9688 35.7812C31.0729 35.6771 31.1667 35.5885 31.25 35.5156C31.3333 35.4427 31.4271 35.3646 31.5312 35.2812C31.625 35.2083 31.7135 35.1354 31.7969 35.0625C31.8906 34.9792 31.9792 34.901 32.0625 34.8281C32.2292 34.6719 32.4271 34.5417 32.6562 34.4375C32.7812 34.4167 32.875 34.3698 32.9375 34.2969C32.9792 34.2448 33.0521 34.1667 33.1562 34.0625C33.2812 34.0833 33.375 34.0729 33.4375 34.0312C33.4792 34.0104 33.5208 33.9896 33.5625 33.9688C33.6146 33.9479 33.6667 33.9271 33.7188 33.9062C34.0104 33.9688 34.2448 34.0833 34.4219 34.25C34.599 34.4167 34.7708 34.5833 34.9375 34.75C35.0833 34.8125 35.1979 34.8698 35.2812 34.9219C35.3646 34.974 35.4479 35.0312 35.5312 35.0938C35.6146 35.2604 35.6875 35.4167 35.75 35.5625C35.8125 35.7083 35.8438 35.875 35.8438 36.0625C35.8438 36.1458 35.8333 36.2708 35.8125 36.4375C35.8021 36.5 35.7917 36.5625 35.7812 36.625C35.7708 36.6875 35.7604 36.75 35.75 36.8125C35.6667 37.0625 35.6354 37.1979 35.6562 37.2188C35.6771 37.2396 35.6875 37.2708 35.6875 37.3125C35.7083 37.5 35.651 37.6719 35.5156 37.8281C35.3802 37.9948 35.3438 38.1771 35.4062 38.375C35.4271 38.4583 35.401 38.6146 35.3281 38.8438C35.2552 39.0729 35.2292 39.2292 35.25 39.3125C35.2917 39.4271 35.3125 39.5885 35.3125 39.7969C35.3125 40.0052 35.3646 40.1458 35.4688 40.2188C35.6875 40.3021 35.8333 40.3438 35.9062 40.3438H36.125C36.375 40.2188 36.6875 40.0052 37.0625 39.7031C37.4375 39.401 37.7188 39.1458 37.9062 38.9375C38.0104 38.8542 38.1094 38.7708 38.2031 38.6875C38.2969 38.6042 38.3854 38.526 38.4688 38.4531C38.6667 38.276 38.8958 38.125 39.1562 38C39.4271 37.8125 39.5938 37.6823 39.6562 37.6094L40.0625 37.1562C40.125 37.0938 40.2031 37.0312 40.2969 36.9688C40.3906 36.9062 40.4792 36.8333 40.5625 36.75C40.7292 36.5833 40.8958 36.4688 41.0625 36.4062H41.4219C41.5677 36.4062 41.6667 36.4479 41.7188 36.5312C41.7604 36.6979 41.7604 36.8438 41.7188 36.9688C41.6771 37.0938 41.625 37.2083 41.5625 37.3125C41.4896 37.4271 41.3958 37.5417 41.2812 37.6562C41.1979 37.8125 41.1042 37.9479 41 38.0625C40.9479 38.1146 40.8906 38.1719 40.8281 38.2344C40.776 38.2865 40.7188 38.349 40.6562 38.4219C40.5312 38.5677 40.3854 38.6771 40.2188 38.75C40.1667 38.8125 40.1146 38.8698 40.0625 38.9219C40.0208 38.974 39.974 39.026 39.9219 39.0781L39.625 39.375C39.5104 39.4896 39.4167 39.6042 39.3438 39.7188C39.2708 39.8333 39.1771 39.9479 39.0625 40.0625C38.9479 40.1562 38.8333 40.25 38.7188 40.3438C38.6146 40.4375 38.5052 40.526 38.3906 40.6094C38.1719 40.776 37.9688 40.9792 37.7812 41.2188C37.6875 41.2604 37.6042 41.3073 37.5312 41.3594C37.4896 41.3906 37.4167 41.4375 37.3125 41.5C37.0521 41.5729 36.7865 41.724 36.5156 41.9531C36.2552 42.1823 35.9844 42.3958 35.7031 42.5938C35.4323 42.7812 35.1458 42.8646 34.8438 42.8438C34.6146 42.9479 34.4167 42.9531 34.25 42.8594C34.0833 42.7656 33.9167 42.6667 33.75 42.5625C33.5208 42.4167 33.3021 42.25 33.0938 42.0625C32.8854 41.875 32.7604 41.6146 32.7188 41.2812C32.6771 40.7396 32.7396 40.2292 32.9062 39.75C33.0833 39.2604 33.2083 38.7812 33.2812 38.3125C33.2812 38.2604 33.3125 38.0729 33.375 37.75C33.4479 37.4167 33.4583 37.1979 33.4062 37.0938C33.375 37.0521 33.349 36.9792 33.3281 36.875C33.3177 36.7708 33.2292 36.6667 33.0625 36.5625C32.9688 36.5104 32.9271 36.5 32.9375 36.5312C32.9479 36.5729 32.8646 36.5938 32.6875 36.5938C32.5104 36.6562 32.3646 36.7396 32.25 36.8438C32.1875 36.8958 32.1198 36.9479 32.0469 37C31.9844 37.0521 31.9167 37.1042 31.8438 37.1562C31.6562 37.375 31.4219 37.5833 31.1406 37.7812C30.8906 37.9583 30.6667 38.1771 30.4688 38.4375C30.3021 38.625 30.1458 38.8125 30 39C29.875 39.1667 29.7083 39.3542 29.5 39.5625C28.9167 40.2292 28.3438 40.8438 27.7812 41.4062C27.7083 41.4896 27.6354 41.5729 27.5625 41.6562C27.5 41.7396 27.4375 41.8229 27.375 41.9062C27.3125 41.9896 27.2448 42.0729 27.1719 42.1562C27.1094 42.2396 27.0417 42.3229 26.9688 42.4062C26.7188 42.7188 26.4479 43.0208 26.1562 43.3125C26.0312 43.5208 25.8542 43.7188 25.625 43.9062C25.3958 44.0938 25.1667 44.2292 24.9375 44.3125C24.875 44.2708 24.8073 44.2708 24.7344 44.3125C24.6615 44.3542 24.5938 44.375 24.5312 44.375C24.4062 44.3229 24.3073 44.2812 24.2344 44.25C24.1615 44.2292 24.1146 44.2135 24.0938 44.2031C24.0521 44.1823 24.0208 44.1354 24 44.0625C23.7917 43.9375 23.7135 43.7344 23.7656 43.4531C23.8177 43.1719 23.8646 42.9271 23.9062 42.7188C24.0104 42.25 24.1354 41.7812 24.2812 41.3125C24.4271 40.8438 24.5885 40.3802 24.7656 39.9219C24.9427 39.4635 25.1042 39.0052 25.25 38.5469C25.3958 38.0885 25.5208 37.6354 25.625 37.1875C25.7292 36.8333 25.8333 36.5052 25.9375 36.2031C26.0417 35.901 26.1667 35.5833 26.3125 35.25C26.4688 34.9167 26.5677 34.6198 26.6094 34.3594C26.651 34.099 26.75 33.8021 26.9062 33.4688C27 33.3021 27.0729 33.1458 27.125 33C27.1875 32.8229 27.25 32.6667 27.3125 32.5312C27.5521 32.1042 27.7708 31.5885 27.9688 30.9844C28.1771 30.3698 28.3958 29.8229 28.625 29.3438C28.875 28.6771 29.1354 28.0312 29.4062 27.4062C29.6771 26.7812 29.9792 26.1667 30.3125 25.5625C30.5104 24.7604 30.8333 24.0104 31.2812 23.3125C31.4896 23.0417 31.6302 22.8229 31.7031 22.6562C31.7969 22.4479 31.8854 22.2917 31.9688 22.1875C32.2188 21.8854 32.5 21.651 32.8125 21.4844C33.1146 21.3177 33.3854 21.0833 33.625 20.7812C33.8021 20.6979 33.9635 20.6354 34.1094 20.5938C34.1927 20.5729 34.2708 20.5521 34.3438 20.5312C34.4167 20.5 34.4896 20.4688 34.5625 20.4375C34.625 20.5 34.6562 20.625 34.6562 20.8125C34.6979 20.8125 34.7083 20.875 34.6875 21C34.6667 21.125 34.6667 21.2292 34.6875 21.3125C34.6875 21.6042 34.6615 21.8125 34.6094 21.9375L34.4688 22.2812C34.4479 22.4479 34.4375 22.5573 34.4375 22.6094C34.4375 22.6823 34.4271 22.7708 34.4062 22.875C34.3438 23.0729 34.3177 23.1823 34.3281 23.2031C34.3385 23.224 34.3438 23.2604 34.3438 23.3125C34.3438 23.3542 34.3333 23.4479 34.3125 23.5938C34.2917 23.7396 34.2812 23.8438 34.2812 23.9062C34.2708 24.1146 34.2135 24.3542 34.1094 24.625C34.026 24.8542 33.9479 25.0833 33.875 25.3125C33.75 25.4583 33.6771 25.5729 33.6562 25.6562C33.6354 25.7396 33.5938 25.7917 33.5312 25.8125C33.4688 25.9896 33.4062 26.1667 33.3438 26.3438C33.2917 26.5104 33.2396 26.6771 33.1875 26.8438C33.0833 27.1667 32.9271 27.4792 32.7188 27.7812C32.6458 28 32.5365 28.224 32.3906 28.4531C32.3177 28.5573 32.25 28.6667 32.1875 28.7812C32.1354 28.8854 32.0833 28.9896 32.0312 29.0938L31.8906 29.3906C31.8281 29.5156 31.7812 29.6146 31.75 29.6875C31.6042 29.9583 31.4531 30.2344 31.2969 30.5156C31.1406 30.7969 30.9583 31.0521 30.75 31.2812C30.375 32.0729 29.9792 32.8698 29.5625 33.6719C29.1458 34.474 28.7396 35.25 28.3438 36C28.2708 36.1146 28.2083 36.224 28.1562 36.3281C28.1042 36.4219 28.0625 36.5104 28.0312 36.5938C27.9792 36.7083 27.9427 36.8385 27.9219 36.9844C27.901 37.1094 27.8438 37.2188 27.75 37.3125C27.7188 37.4062 27.6875 37.5 27.6562 37.5938C27.625 37.6771 27.599 37.7604 27.5781 37.8438C27.5365 38.0104 27.4583 38.1667 27.3438 38.3125C27.2708 38.7188 27.1406 39.1094 26.9531 39.4844C26.776 39.8385 26.6354 40.2188 26.5312 40.625ZM55.3438 33.9688C55.4479 33.9792 55.5156 34.0208 55.5469 34.0938C55.5781 34.1562 55.6354 34.1875 55.7188 34.1875C55.7604 34.3854 55.7188 34.526 55.5938 34.6094C55.4688 34.6823 55.4271 34.8021 55.4688 34.9688C55.2812 35.0938 55.0521 35.1719 54.7812 35.2031C54.5 35.2344 54.2917 35.3438 54.1562 35.5312C53.7917 35.7083 53.4115 35.8177 53.0156 35.8594C52.8177 35.8802 52.6094 35.9115 52.3906 35.9531C52.1823 35.9844 51.9688 36.0208 51.75 36.0625C51.5208 36.2188 51.3802 36.3021 51.3281 36.3125C51.2552 36.3229 51.1771 36.3542 51.0938 36.4062C50.875 36.3229 50.6562 36.2812 50.4375 36.2812C50.2188 36.2812 49.9896 36.25 49.75 36.1875C49.6354 36.2292 49.5156 36.25 49.3906 36.25C49.2656 36.25 49.1458 36.2708 49.0312 36.3125C48.9479 36.5 48.9062 36.6875 48.9062 36.875C48.9062 37.0729 48.875 37.2604 48.8125 37.4375L48.625 37.8125L48.5781 38.1094C48.5573 38.2344 48.5312 38.3333 48.5 38.4062C48.4583 38.4688 48.4115 38.5417 48.3594 38.625C48.3073 38.7083 48.2812 38.8021 48.2812 38.9062C48.1354 39.0938 48.0312 39.2865 47.9688 39.4844C47.9062 39.7135 47.7917 39.8958 47.625 40.0312C47.5625 40.25 47.4635 40.4167 47.3281 40.5312C47.1927 40.6562 47.0625 40.8021 46.9375 40.9688C46.7083 41.2812 46.5052 41.5521 46.3281 41.7812C46.151 42.0104 45.9167 42.2083 45.625 42.375C45.5208 42.5417 45.3958 42.6562 45.25 42.7188C45.1458 42.8229 45.0625 42.9271 45 43.0312L44.375 43.4062C44.125 43.5625 43.8854 43.6667 43.6562 43.7188C43.3021 43.8021 42.9583 43.7917 42.625 43.6875C42.2917 43.5833 41.9792 43.4375 41.6875 43.25C41.4896 43.2708 41.3385 43.2344 41.2344 43.1406C41.1302 43.0573 40.9896 42.9896 40.8125 42.9375C40.5833 42.7292 40.3333 42.5417 40.0625 42.375C39.7812 42.1979 39.5833 41.9688 39.4688 41.6875L39.3281 41C39.2865 40.7917 39.2396 40.5833 39.1875 40.375C39.1458 40.1979 39.1406 40 39.1719 39.7812C39.2031 39.5938 39.2083 39.3854 39.1875 39.1562C39.1875 39.0417 39.1875 38.9375 39.1875 38.8438C39.1875 38.7396 39.1823 38.651 39.1719 38.5781C39.1615 38.4219 39.2083 38.2292 39.3125 38C39.375 37.8646 39.4271 37.7396 39.4688 37.625C39.5104 37.5104 39.5417 37.4115 39.5625 37.3281C39.5833 37.2448 39.6042 37.1667 39.625 37.0938C39.6458 37.0104 39.6667 36.9375 39.6875 36.875C39.7188 36.8229 39.75 36.7708 39.7812 36.7188C39.8125 36.6562 39.8438 36.5938 39.875 36.5312C39.9062 36.4688 39.9375 36.4115 39.9688 36.3594C40.0104 36.2969 40.0521 36.2396 40.0938 36.1875C40.2188 36 40.3646 35.8125 40.5312 35.625C40.6979 35.4375 40.8646 35.2604 41.0312 35.0938C41.1458 34.9375 41.2604 34.8021 41.375 34.6875C41.5625 34.5 41.7396 34.3438 41.9062 34.2188C42.0729 34.0938 42.2604 33.9271 42.4688 33.7188C42.5104 33.6562 42.5625 33.6042 42.625 33.5625L42.8125 33.4375C43.0208 33.3125 43.2135 33.2083 43.3906 33.125C43.5677 33.0417 43.7708 32.9479 44 32.8438C44.1979 32.75 44.3594 32.6927 44.4844 32.6719C44.5677 32.651 44.651 32.6354 44.7344 32.625C44.8281 32.6042 44.9271 32.5833 45.0312 32.5625H45.4062C45.5208 32.5625 45.625 32.5417 45.7188 32.5C45.6562 32.3333 45.7292 32.2188 45.9375 32.1562C46.1458 32.0938 46.3021 32.0729 46.4062 32.0938C46.6146 32.0938 46.7812 32.1406 46.9062 32.2344C47.0312 32.3281 47.1458 32.4375 47.25 32.5625C47.4583 32.7083 47.6875 32.9271 47.9375 33.2188C47.9896 33.2708 48.0417 33.3021 48.0938 33.3125C48.1458 33.3229 48.1979 33.3542 48.25 33.4062C48.3333 33.5312 48.3906 33.6458 48.4219 33.75C48.4531 33.875 48.5208 33.9896 48.625 34.0938C48.6875 34.1354 48.75 34.1875 48.8125 34.25C48.875 34.3125 48.9167 34.3958 48.9375 34.5C49.1562 34.5833 49.3542 34.6458 49.5312 34.6875C49.625 34.7292 49.7344 34.7396 49.8594 34.7188C49.974 34.6979 50.1042 34.6979 50.25 34.7188C50.3438 34.7292 50.4375 34.7552 50.5312 34.7969C50.6146 34.8281 50.7083 34.8438 50.8125 34.8438C50.9688 34.8333 51.1406 34.7917 51.3281 34.7188C51.5052 34.6562 51.7083 34.6458 51.9375 34.6875C52.25 34.7604 52.5781 34.7292 52.9219 34.5938C53.2656 34.4479 53.6146 34.3542 53.9688 34.3125C54.0729 34.3125 54.1458 34.3073 54.1875 34.2969C54.2292 34.2865 54.3021 34.2812 54.4062 34.2812C54.5104 34.1979 54.6458 34.1354 54.8125 34.0938C54.9792 34.0521 55.1562 34.0104 55.3438 33.9688ZM46.4062 34.9062C46.1979 34.7188 46.0781 34.599 46.0469 34.5469C46.0052 34.4844 45.9688 34.4479 45.9375 34.4375C45.8438 34.3438 45.7396 34.2917 45.625 34.2812C45.5625 34.2708 45.5 34.2604 45.4375 34.25C45.3854 34.2396 45.3333 34.2292 45.2812 34.2188C44.9479 34.1562 44.6719 34.1927 44.4531 34.3281C44.349 34.401 44.2396 34.4688 44.125 34.5312C44.0208 34.5938 43.9167 34.6562 43.8125 34.7188C43.4792 34.9271 43.1875 35.1875 42.9375 35.5C42.875 35.6042 42.8073 35.7188 42.7344 35.8438C42.6615 35.9688 42.6042 36.1042 42.5625 36.25C42.4792 36.4167 42.4062 36.5677 42.3438 36.7031C42.2812 36.8385 42.2292 37 42.1875 37.1875C42.0833 37.3854 42.0208 37.5573 42 37.7031C41.9896 37.776 41.9792 37.8438 41.9688 37.9062C41.9583 37.9583 41.9479 38.0104 41.9375 38.0625C41.9271 38.1667 41.9115 38.276 41.8906 38.3906C41.8698 38.4948 41.849 38.6042 41.8281 38.7188C41.776 38.9792 41.75 39.1771 41.75 39.3125C41.7708 39.375 41.8021 39.4583 41.8438 39.5625C41.8854 39.6667 41.9271 39.7396 41.9688 39.7812C42.0104 39.8854 42.0573 40 42.1094 40.125C42.1615 40.25 42.2083 40.3438 42.25 40.4062C42.3646 40.5521 42.5 40.6458 42.6562 40.6875C42.7396 40.7083 42.8281 40.7344 42.9219 40.7656C43.0156 40.7865 43.1146 40.8125 43.2188 40.8438C43.4479 40.9688 43.6042 41.0208 43.6875 41C43.7917 40.9792 43.8542 40.9688 43.875 40.9688C44.1562 40.9167 44.3958 40.8021 44.5938 40.625C44.7708 40.4583 44.9792 40.3125 45.2188 40.1875C45.3021 40.0625 45.3854 39.9323 45.4688 39.7969C45.5625 39.6615 45.6615 39.526 45.7656 39.3906C45.8698 39.2448 45.9635 39.1042 46.0469 38.9688C46.1406 38.8229 46.2292 38.6771 46.3125 38.5312C46.3646 38.4688 46.4167 38.375 46.4688 38.25C46.4896 38.1979 46.5104 38.151 46.5312 38.1094C46.5521 38.0573 46.5729 38.0104 46.5938 37.9688C46.7396 37.7917 46.8073 37.6979 46.7969 37.6875C46.7865 37.6771 46.7917 37.6458 46.8125 37.5938C46.9479 37.2812 47.0104 37.0417 47 36.875C46.9896 36.7083 46.9896 36.5417 47 36.375C46.9479 36.2604 46.901 36.1406 46.8594 36.0156C46.8177 35.8906 46.776 35.7604 46.7344 35.625C46.651 35.3438 46.5417 35.1042 46.4062 34.9062ZM60.1875 39.375C60.5417 39.2708 60.8958 39.1771 61.25 39.0938C61.6042 39.0104 61.9688 38.9479 62.3438 38.9062C62.6771 38.8854 63.0208 38.8229 63.375 38.7188L63.8125 38.5781C63.8854 38.5573 63.9531 38.5365 64.0156 38.5156C64.0885 38.4844 64.1562 38.4583 64.2188 38.4375C64.3646 38.3958 64.5052 38.3594 64.6406 38.3281C64.776 38.2969 64.8958 38.2708 65 38.25C65.1667 38.375 65.2448 38.4427 65.2344 38.4531C65.224 38.4635 65.2396 38.4896 65.2812 38.5312L65.0312 38.9688C64.9479 39.0312 64.849 39.0729 64.7344 39.0938C64.6302 39.1042 64.5208 39.1354 64.4062 39.1875C64.3021 39.25 64.2396 39.2917 64.2188 39.3125C64.1667 39.3646 64.125 39.3958 64.0938 39.4062C64 39.4271 63.9323 39.4219 63.8906 39.3906C63.8281 39.349 63.7812 39.3229 63.75 39.3125C63.2396 39.6458 62.6667 39.875 62.0312 40C61.3646 40.125 60.75 40.2812 60.1875 40.4688C59.9792 40.5729 59.7708 40.6823 59.5625 40.7969C59.3542 40.9115 59.1354 41.0417 58.9062 41.1875C58.7396 41.5208 58.5052 41.8438 58.2031 42.1562C57.901 42.4688 57.5938 42.7396 57.2812 42.9688C57.1979 43.0312 57.1302 43.0781 57.0781 43.1094C57.0365 43.1302 57 43.151 56.9688 43.1719C56.9479 43.1927 56.9271 43.2083 56.9062 43.2188C56.8333 43.25 56.7552 43.276 56.6719 43.2969C56.5885 43.3281 56.5052 43.3542 56.4219 43.375C56.3385 43.3958 56.2552 43.4167 56.1719 43.4375C56.0885 43.4583 56.0104 43.4792 55.9375 43.5C55.8125 43.625 55.7083 43.6875 55.625 43.6875C55.4896 43.7083 55.3646 43.6875 55.25 43.625C55.1146 43.5521 54.9792 43.5104 54.8438 43.5C54.7396 43.3125 54.6771 43.1823 54.6562 43.1094C54.6354 43.0573 54.5938 43.0208 54.5312 43C54.4792 42.7917 54.3594 42.5938 54.1719 42.4062C53.9948 42.2292 53.8542 42.0312 53.75 41.8125C53.7083 41.7292 53.6719 41.6406 53.6406 41.5469C53.6094 41.4531 53.5938 41.3646 53.5938 41.2812C53.6146 41.0521 53.7083 40.8542 53.875 40.6875C54.0417 40.5208 54.2083 40.3854 54.375 40.2812C54.5 40.4688 54.6094 40.5417 54.7031 40.5C54.7969 40.4583 54.875 40.4167 54.9375 40.375C55.0104 40.3438 55.099 40.3177 55.2031 40.2969L55.4062 40.25C55.7188 40.1771 56.0521 40.1146 56.4062 40.0625C56.6354 40.0417 56.8125 40.0469 56.9375 40.0781C57.0938 40.1094 57.2604 40.1042 57.4375 40.0625C57.5417 39.875 57.6719 39.6979 57.8281 39.5312C57.9844 39.3646 58.1354 39.2083 58.2812 39.0625C58.3854 38.8125 58.5208 38.5417 58.6875 38.25C58.8542 37.9583 59.0208 37.6771 59.1875 37.4062L59.4688 36.8438C59.5104 36.8021 59.5469 36.7604 59.5781 36.7188C59.6094 36.6771 59.6458 36.6146 59.6875 36.5312C59.7292 36.3646 59.7448 36.2031 59.7344 36.0469C59.724 35.8906 59.7083 35.7188 59.6875 35.5312C59.4896 35.4167 59.2917 35.2604 59.0938 35.0625C58.9688 35.1146 58.849 35.1146 58.7344 35.0625C58.6198 35.0104 58.5 35.0104 58.375 35.0625C58.3125 35.0729 58.25 35.1042 58.1875 35.1562C58.1562 35.1771 58.1198 35.1979 58.0781 35.2188C58.0469 35.2396 58.0104 35.2604 57.9688 35.2812C57.7812 35.3854 57.5781 35.4792 57.3594 35.5625C57.1406 35.6354 56.9688 35.7604 56.8438 35.9375C56.7292 36.0521 56.625 36.1615 56.5312 36.2656C56.4375 36.3594 56.3542 36.4479 56.2812 36.5312C56.2083 36.6146 56.1302 36.7031 56.0469 36.7969C55.974 36.8802 55.8958 36.9688 55.8125 37.0625C55.7083 37.1458 55.6198 37.2188 55.5469 37.2812C55.4844 37.3333 55.4427 37.3802 55.4219 37.4219C55.3906 37.474 55.3438 37.5312 55.2812 37.5938C55.2188 37.6562 55.1562 37.7188 55.0938 37.7812C55.0312 37.8333 54.9688 37.8854 54.9062 37.9375C54.7812 38.0417 54.6667 38.1562 54.5625 38.2812C54.5 38.3646 54.4427 38.4219 54.3906 38.4531C54.3385 38.4844 54.2812 38.5417 54.2188 38.625C54.0938 38.7604 53.9844 38.9167 53.8906 39.0938C53.8073 39.25 53.7083 39.4167 53.5938 39.5938L52.9688 40.5938C52.8542 40.9167 52.7292 41.2396 52.5938 41.5625C52.4688 41.875 52.3333 42.1823 52.1875 42.4844C52.0417 42.7865 51.901 43.099 51.7656 43.4219C51.6406 43.7448 51.5208 44.0729 51.4062 44.4062C51.3646 44.625 51.3333 44.7448 51.3125 44.7656C51.2917 44.7865 51.2812 44.8125 51.2812 44.8438C51.2604 44.9271 51.2448 45.0052 51.2344 45.0781C51.2135 45.151 51.1927 45.224 51.1719 45.2969C51.1406 45.4323 51.0938 45.5625 51.0312 45.6875C50.9896 45.8542 50.9271 46.026 50.8438 46.2031C50.7604 46.3802 50.6771 46.5521 50.5938 46.7188C50.4583 47.0521 50.3333 47.3698 50.2188 47.6719C50.0938 48.0156 49.9688 48.3438 49.8438 48.6562C49.7917 48.7708 49.7448 48.8854 49.7031 49C49.6615 49.1146 49.6198 49.2292 49.5781 49.3438L49.3438 50.0312C49.2917 50.1458 49.2552 50.2708 49.2344 50.4062C49.224 50.4688 49.2135 50.5312 49.2031 50.5938C49.1927 50.6562 49.1771 50.7188 49.1562 50.7812C49.0938 51 49.0156 51.2396 48.9219 51.5C48.8177 51.7708 48.7604 52.0104 48.75 52.2188C48.4479 52.5104 48.2396 52.7604 48.125 52.9688C47.8958 53.1979 47.6562 53.401 47.4062 53.5781C47.1562 53.7552 46.875 53.9062 46.5625 54.0312C46.3646 54.0312 46.1094 54.0104 45.7969 53.9688C45.474 53.9375 45.3125 53.8021 45.3125 53.5625C45.2917 53.375 45.2969 53.1354 45.3281 52.8438C45.3594 52.5521 45.4271 52.3021 45.5312 52.0938C45.6146 51.8646 45.7031 51.6458 45.7969 51.4375C45.8906 51.2292 45.9792 51.0521 46.0625 50.9062C46.1875 50.3646 46.3438 49.9062 46.5312 49.5312C46.5833 49.4167 46.6354 49.3073 46.6875 49.2031C46.7396 49.099 46.7917 48.9948 46.8438 48.8906C46.9583 48.6719 47.0521 48.4583 47.125 48.25C47.1771 48.1042 47.2083 47.9479 47.2188 47.7812C47.2292 47.6146 47.2917 47.4688 47.4062 47.3438C47.5521 46.9896 47.7344 46.6562 47.9531 46.3438C48.1719 46.0312 48.3958 45.7188 48.625 45.4062C48.7396 45.2292 48.8333 45.0573 48.9062 44.8906C48.9896 44.7135 49.0833 44.5417 49.1875 44.375C49.375 44.0521 49.5312 43.7188 49.6562 43.375C49.7812 43.0208 49.9583 42.6979 50.1875 42.4062C50.2396 42.2917 50.2917 42.1823 50.3438 42.0781C50.3958 41.974 50.4479 41.8698 50.5 41.7656L50.8125 41.1562C50.8438 41.0833 50.8802 40.974 50.9219 40.8281C50.9635 40.6823 51 40.5729 51.0312 40.5C51.0938 40.4062 51.1562 40.3125 51.2188 40.2188C51.2708 40.1146 51.3229 40.0104 51.375 39.9062C51.5625 39.4896 51.7552 39.0781 51.9531 38.6719C52.151 38.2656 52.375 37.8646 52.625 37.4688C52.6354 37.25 52.6927 37.0417 52.7969 36.8438C52.849 36.75 52.8958 36.651 52.9375 36.5469C52.9792 36.4427 53.0208 36.3333 53.0625 36.2188C53.125 36.0417 53.1719 35.8646 53.2031 35.6875C53.2448 35.4688 53.2812 35.2917 53.3125 35.1562C53.375 34.9688 53.4479 34.8229 53.5312 34.7188C53.6458 34.5729 53.7396 34.4167 53.8125 34.25C53.8333 34.2188 53.8542 34.1875 53.875 34.1562C53.8958 34.125 53.9167 34.0885 53.9375 34.0469C53.9583 34.0052 53.9792 33.9688 54 33.9375C54.0208 33.9062 54.0417 33.875 54.0625 33.8438C54.125 33.7188 54.1719 33.6094 54.2031 33.5156C54.224 33.4427 54.2812 33.3438 54.375 33.2188C54.625 32.9271 54.7865 32.7656 54.8594 32.7344C54.9115 32.7135 54.9635 32.6875 55.0156 32.6562C55.0677 32.6146 55.125 32.5729 55.1875 32.5312C55.6042 32.5104 55.8646 32.6094 55.9688 32.8281C56.0729 33.0469 56.1667 33.2708 56.25 33.5C56.2083 33.6667 56.1667 33.8333 56.125 34C56.0833 34.1667 56.0417 34.3646 56 34.5938C56.0833 34.5208 56.1667 34.4479 56.25 34.375C56.3438 34.2917 56.4427 34.2083 56.5469 34.125C56.7552 33.9479 56.9375 33.7812 57.0938 33.625C57.2708 33.5208 57.4427 33.4115 57.6094 33.2969C57.7865 33.1823 57.9583 33.0677 58.125 32.9531C58.4583 32.7135 58.8333 32.5104 59.25 32.3438C59.3542 32.3021 59.4635 32.2604 59.5781 32.2188C59.6927 32.1771 59.8021 32.1562 59.9062 32.1562C60 32.1562 60.0885 32.1823 60.1719 32.2344C60.276 32.2969 60.375 32.3333 60.4688 32.3438C60.5833 32.4583 60.7031 32.5573 60.8281 32.6406C60.9427 32.7135 61.0625 32.8229 61.1875 32.9688C61.2708 33.0729 61.3333 33.1979 61.375 33.3438C61.3958 33.4167 61.4167 33.4896 61.4375 33.5625C61.4583 33.6354 61.4792 33.7083 61.5 33.7812C61.5208 33.8542 61.5417 33.9271 61.5625 34C61.5938 34.0729 61.6302 34.1458 61.6719 34.2188C61.7448 34.3542 61.7917 34.4896 61.8125 34.625C61.8125 34.6875 61.8021 34.7917 61.7812 34.9375C61.7604 35.0833 61.75 35.1875 61.75 35.25C61.75 35.3333 61.7552 35.3958 61.7656 35.4375C61.776 35.4792 61.7812 35.5625 61.7812 35.6875C61.7708 35.8854 61.6875 36.1458 61.5312 36.4688L61.1562 37.25C61.1146 37.3333 61.0729 37.4167 61.0312 37.5C61 37.5729 60.9688 37.6458 60.9375 37.7188L60.7188 38.1875C60.6146 38.4167 60.5208 38.625 60.4375 38.8125C60.3542 39 60.2708 39.1875 60.1875 39.375ZM70.9062 27.3438L71.2188 27.4375C71.2604 27.4896 71.2812 27.5521 71.2812 27.625C71.2812 27.6771 71.3125 27.7292 71.375 27.7812C71.3333 27.9688 71.2969 28.1615 71.2656 28.3594C71.2344 28.5573 71.2188 28.75 71.2188 28.9375C71.2188 29.0104 71.2448 29.0833 71.2969 29.1562C71.349 29.2292 71.375 29.2917 71.375 29.3438C71.2708 29.5833 71.1927 29.7292 71.1406 29.7812C71.0885 29.8333 71.0625 29.8854 71.0625 29.9375C70.9583 29.9792 70.8802 30.0417 70.8281 30.125C70.776 30.2083 70.6875 30.25 70.5625 30.25C70.5208 30.3125 70.474 30.3594 70.4219 30.3906C70.3594 30.4323 70.3229 30.4896 70.3125 30.5625C69.9688 30.7083 69.5938 30.6979 69.1875 30.5312C69.0729 30.3333 68.9271 30.1979 68.75 30.125C68.4792 29.7292 68.4688 29.2604 68.7188 28.7188C68.7604 28.6146 68.8073 28.5052 68.8594 28.3906C68.9115 28.276 68.9583 28.1979 69 28.1562C69.2188 28 69.3854 27.8958 69.5 27.8438C69.5417 27.8229 69.5833 27.8021 69.625 27.7812C69.6771 27.75 69.724 27.7188 69.7656 27.6875C69.8385 27.6354 69.9479 27.5833 70.0938 27.5312C70.1562 27.5104 70.2135 27.5 70.2656 27.5C70.349 27.5 70.4271 27.4792 70.5 27.4375C70.5417 27.4271 70.5781 27.4167 70.6094 27.4062C70.651 27.3958 70.6875 27.3854 70.7188 27.375C70.8021 27.3542 70.8646 27.3438 70.9062 27.3438ZM66.2188 41.1875L66.375 41.25C66.5625 41.1667 66.7917 41.1354 67.0625 41.1562C67.3438 41.1771 67.5625 41.1354 67.7188 41.0312C67.8229 40.9479 67.8958 40.8854 67.9375 40.8438C68 40.7812 68.0729 40.7604 68.1562 40.7812C68.4896 40.6562 68.7708 40.5312 69 40.4062C69.2396 40.2812 69.4896 40.1875 69.75 40.125C69.9167 40.0625 70.0625 39.9688 70.1875 39.8438C70.6146 39.7083 70.974 39.5156 71.2656 39.2656C71.5677 39.0156 71.8958 38.75 72.25 38.4688C72.5417 38.3021 72.7865 38.1562 72.9844 38.0312C73.1823 37.9062 73.3958 37.75 73.625 37.5625C73.6771 37.4479 73.7344 37.3698 73.7969 37.3281C73.849 37.2969 73.9062 37.2292 73.9688 37.125C74.3438 37.125 74.5521 37.2708 74.5938 37.5625C74.4896 37.7917 74.349 37.9792 74.1719 38.125C73.9844 38.2812 73.8229 38.4479 73.6875 38.625C73.5208 38.7292 73.3854 38.8229 73.2812 38.9062C73.1771 38.9896 73.0729 39.1146 72.9688 39.2812C72.9583 39.2812 72.8958 39.3281 72.7812 39.4219C72.6771 39.5156 72.6146 39.5625 72.5938 39.5625C72.4271 39.7604 72.3021 39.8802 72.2188 39.9219C72.1354 39.9635 71.9896 40.0729 71.7812 40.25C71.6458 40.4792 71.4583 40.6667 71.2188 40.8125C70.7708 41.2396 70.2969 41.599 69.7969 41.8906C69.5365 42.0365 69.2917 42.1875 69.0625 42.3438C68.8333 42.4896 68.6146 42.6354 68.4062 42.7812C68.3021 42.8438 68.2292 42.901 68.1875 42.9531C68.1458 43.0052 68.0729 43.0729 67.9688 43.1562C67.8646 43.2396 67.7031 43.3229 67.4844 43.4062C67.2656 43.4896 67.0729 43.5625 66.9062 43.625C66.7708 43.7083 66.6562 43.7708 66.5625 43.8125C66.0938 43.8333 65.7396 43.7604 65.5 43.5938C65.2292 43.4479 65.0208 43.3333 64.875 43.25C64.7292 43.1667 64.6042 43.0312 64.5 42.8438C64.2604 42.7292 64.1198 42.5365 64.0781 42.2656C64.0573 42.1198 64.0312 41.9792 64 41.8438C63.9688 41.7083 63.9375 41.5729 63.9062 41.4375C63.8854 41.3333 63.8646 41.2135 63.8438 41.0781C63.8229 40.9427 63.8229 40.8021 63.8438 40.6562C63.8958 40.4167 63.9271 40.1719 63.9375 39.9219C63.9479 39.6927 64 39.4688 64.0938 39.25C64.1875 39.0417 64.2448 38.8125 64.2656 38.5625C64.2865 38.3125 64.3438 38.0833 64.4375 37.875C64.5729 37.6667 64.6302 37.5521 64.6094 37.5312C64.599 37.5208 64.6042 37.4896 64.625 37.4375L64.7656 37.25C64.7969 37.2083 64.8438 37.1354 64.9062 37.0312L65.0938 36.5625C65.1875 36.3854 65.2812 36.2396 65.375 36.125C65.4688 36 65.5521 35.8229 65.625 35.5938C65.6771 35.4479 65.7344 35.3333 65.7969 35.25C65.8385 35.1979 65.875 35.1458 65.9062 35.0938C65.9479 35.0312 65.9896 34.9688 66.0312 34.9062C66.0833 34.8021 66.1354 34.6719 66.1875 34.5156C66.2083 34.4427 66.2292 34.375 66.25 34.3125C66.2812 34.2396 66.3125 34.1667 66.3438 34.0938C66.4062 33.9271 66.4844 33.7604 66.5781 33.5938C66.6719 33.4271 66.7708 33.2604 66.875 33.0938C66.9583 32.9271 67.0312 32.8021 67.0938 32.7188C67.1562 32.6354 67.2812 32.5833 67.4688 32.5625C67.5625 32.5417 67.6562 32.5469 67.75 32.5781C67.8646 32.6094 67.9688 32.6042 68.0625 32.5625C68.3333 32.4375 68.5208 32.375 68.625 32.375C68.7292 32.375 68.8021 32.3438 68.8438 32.2812C69.0625 32.2917 69.2292 32.3646 69.3438 32.5C69.4583 32.625 69.5833 32.75 69.7188 32.875C69.5938 33.4792 69.4531 33.9427 69.2969 34.2656C69.1406 34.5885 68.9688 34.9271 68.7812 35.2812C68.6771 35.4479 68.5729 35.6354 68.4688 35.8438C68.3646 36.0521 68.2708 36.2396 68.1875 36.4062C68.0833 36.6354 67.974 36.8385 67.8594 37.0156C67.724 37.224 67.625 37.4271 67.5625 37.625L67.4219 37.9219C67.3594 38.0469 67.3125 38.1458 67.2812 38.2188C67.2604 38.2917 67.2344 38.3646 67.2031 38.4375C67.1823 38.5 67.151 38.5573 67.1094 38.6094C67.0677 38.6615 67.0312 38.7188 67 38.7812C66.9688 38.8333 66.9375 38.8854 66.9062 38.9375C66.8438 39.0625 66.7812 39.1875 66.7188 39.3125C66.6562 39.4375 66.6042 39.5729 66.5625 39.7188C66.4583 39.9479 66.3958 40.099 66.375 40.1719C66.3646 40.1927 66.3542 40.2188 66.3438 40.25C66.3333 40.2708 66.3229 40.2917 66.3125 40.3125C66.2708 40.5417 66.2083 40.7292 66.125 40.875C66.0417 41.0208 66.0729 41.125 66.2188 41.1875ZM81.875 25.75C82.3333 25.8229 82.7292 25.8698 83.0625 25.8906C83.4062 25.9115 83.7812 25.8854 84.1875 25.8125L85.4219 25.6406C85.7552 25.599 86.1562 25.5521 86.625 25.5C86.75 25.4896 86.8802 25.4896 87.0156 25.5C87.0885 25.5104 87.1562 25.5208 87.2188 25.5312C87.2812 25.5312 87.3438 25.5312 87.4062 25.5312C87.6771 25.5312 87.9427 25.5208 88.2031 25.5C88.4635 25.4792 88.7083 25.4583 88.9375 25.4375C88.9792 25.4271 89.0156 25.4167 89.0469 25.4062C89.0885 25.3958 89.125 25.3854 89.1562 25.375C89.2188 25.3542 89.2812 25.3542 89.3438 25.375C89.4375 25.375 89.5312 25.375 89.625 25.375C89.7188 25.375 89.8125 25.3698 89.9062 25.3594C90.0938 25.349 90.2604 25.4167 90.4062 25.5625C90.4688 25.7708 90.4896 25.8854 90.4688 25.9062C90.4375 25.9375 90.4167 25.9688 90.4062 26C90.3854 26.2708 90.349 26.4062 90.2969 26.4062C90.2448 26.4062 90.2188 26.4271 90.2188 26.4688C90.0521 26.5104 89.9115 26.5469 89.7969 26.5781C89.6823 26.6094 89.5938 26.6771 89.5312 26.7812C89.1771 26.8542 88.849 26.8698 88.5469 26.8281C88.2448 26.776 87.9375 26.8229 87.625 26.9688C87.4688 27.0417 87.3177 27.1198 87.1719 27.2031C87.026 27.2969 86.8333 27.3021 86.5938 27.2188C86.3854 27.2188 86.1458 27.2292 85.875 27.25C85.6042 27.2708 85.3438 27.2917 85.0938 27.3125C84.7396 27.3438 84.3385 27.3802 83.8906 27.4219C83.4531 27.4531 83.1146 27.474 82.875 27.4844C82.6458 27.4948 82.3177 27.5104 81.8906 27.5312C81.4635 27.5521 81.0833 27.5625 80.75 27.5625C80.5833 27.6979 80.474 27.875 80.4219 28.0938C80.3698 28.3021 80.2604 28.4688 80.0938 28.5938C79.9062 29.0104 79.7708 29.276 79.6875 29.3906C79.5938 29.5156 79.5208 29.6771 79.4688 29.875C79.1771 30.25 78.9115 30.6406 78.6719 31.0469C78.4531 31.4219 78.1771 31.8021 77.8438 32.1875C77.8021 32.4167 77.724 32.6198 77.6094 32.7969C77.5052 32.9635 77.4271 33.1979 77.375 33.5C77.1562 33.7917 76.9896 34.1354 76.875 34.5312C76.8229 34.7188 76.7604 34.9115 76.6875 35.1094C76.625 35.3073 76.5521 35.5104 76.4688 35.7188C76.4271 35.8854 76.3802 36.0469 76.3281 36.2031C76.276 36.3594 76.2188 36.5208 76.1562 36.6875C76.0833 36.875 75.9844 37.0677 75.8594 37.2656C75.8073 37.349 75.75 37.4427 75.6875 37.5469C75.6354 37.6406 75.5833 37.7396 75.5312 37.8438C75.4896 37.8854 75.4688 37.9427 75.4688 38.0156C75.4688 38.0677 75.4583 38.125 75.4375 38.1875C75.4062 38.2604 75.375 38.3333 75.3438 38.4062C75.3125 38.4688 75.2812 38.526 75.25 38.5781C75.2083 38.651 75.1562 38.7604 75.0938 38.9062C75.0625 38.9792 75.0365 39.0885 75.0156 39.2344C74.9948 39.3802 74.9688 39.4896 74.9375 39.5625C74.9271 39.5938 74.9167 39.625 74.9062 39.6562C74.8958 39.6875 74.8854 39.7135 74.875 39.7344C74.8646 39.7552 74.8542 39.7812 74.8438 39.8125C74.8333 39.8438 74.8229 39.875 74.8125 39.9062C74.75 40.1979 74.75 40.3958 74.8125 40.5C74.875 40.6042 74.9271 40.7083 74.9688 40.8125C74.9896 40.875 75.0104 40.9323 75.0312 40.9844C75.0521 41.0365 75.0729 41.0885 75.0938 41.1406C75.1458 41.2344 75.1771 41.3333 75.1875 41.4375C75.2396 41.4583 75.2917 41.4792 75.3438 41.5C75.3958 41.5208 75.4427 41.5417 75.4844 41.5625C75.5677 41.6042 75.6667 41.625 75.7812 41.625C75.9167 41.6458 76.0521 41.5885 76.1875 41.4531C76.3333 41.3073 76.4583 41.2292 76.5625 41.2188C76.6875 41.1771 76.8281 41.1562 76.9844 41.1562C77.1198 41.1562 77.2396 41.125 77.3438 41.0625C77.4062 41.0104 77.4635 40.9583 77.5156 40.9062C77.5677 40.8542 77.6146 40.8021 77.6562 40.75C77.7188 40.6562 77.8333 40.5833 78 40.5312C78.3333 40.4479 78.5104 40.3802 78.5312 40.3281C78.5417 40.2865 78.6146 40.2083 78.75 40.0938C78.8229 40.0417 78.8906 39.9896 78.9531 39.9375C79.026 39.8854 79.0885 39.8385 79.1406 39.7969C79.224 39.724 79.3646 39.625 79.5625 39.5C79.7708 39.3958 79.8906 39.3333 79.9219 39.3125C79.9531 39.2917 80.0417 39.2188 80.1875 39.0938C80.2917 39.0417 80.3854 38.9896 80.4688 38.9375C80.5625 38.875 80.6458 38.8125 80.7188 38.75C80.8333 38.6458 81 38.5312 81.2188 38.4062C81.4688 38.3021 81.6042 38.2396 81.625 38.2188C81.6562 38.1875 81.6771 38.151 81.6875 38.1094C81.6979 38.0677 81.8125 37.9792 82.0312 37.8438C82.1042 37.6875 82.1979 37.5521 82.3125 37.4375C82.3646 37.3854 82.4219 37.3281 82.4844 37.2656C82.5469 37.1927 82.6146 37.1146 82.6875 37.0312C82.8229 36.875 82.9531 36.75 83.0781 36.6562C83.224 36.5417 83.3438 36.4375 83.4375 36.3438C83.4792 36.3125 83.5312 36.2656 83.5938 36.2031C83.6562 36.1406 83.7292 36.1042 83.8125 36.0938C83.875 36.0417 83.9271 35.9948 83.9688 35.9531C84.0208 35.9115 84.0677 35.8698 84.1094 35.8281C84.151 35.7865 84.1979 35.7396 84.25 35.6875C84.3125 35.6354 84.3854 35.5729 84.4688 35.5L84.625 35.3438C84.6979 35.2708 84.75 35.2292 84.7812 35.2188C84.875 35.2188 84.9427 35.25 84.9844 35.3125C85.0365 35.375 85.1042 35.4062 85.1875 35.4062C85.1771 35.5417 85.1667 35.651 85.1562 35.7344C85.1562 35.8177 85.1562 35.8802 85.1562 35.9219C85.1562 36.0052 85.1354 36.0833 85.0938 36.1562C84.9688 36.3542 84.8281 36.4583 84.6719 36.4688C84.5156 36.4896 84.3958 36.6042 84.3125 36.8125C84.25 36.7708 84.1719 36.7604 84.0781 36.7812C83.9844 36.8021 83.9167 36.8333 83.875 36.875C83.9167 36.9479 83.9375 37.0208 83.9375 37.0938C83.9375 37.1354 83.9479 37.2083 83.9688 37.3125C83.5833 37.6979 83.3333 38 83.2188 38.2188C82.9583 38.4896 82.8229 38.6406 82.8125 38.6719L82.7812 38.7188L82.5312 38.9688C82.2396 39.1979 82.0208 39.4167 81.875 39.625C81.7396 39.8229 81.5208 40.0104 81.2188 40.1875C80.9896 40.3542 80.8333 40.4792 80.75 40.5625C80.7083 40.6042 80.6562 40.6562 80.5938 40.7188C80.5312 40.7708 80.4583 40.8333 80.375 40.9062C80.3229 40.9583 80.2448 41.0469 80.1406 41.1719C80.0365 41.2969 79.9479 41.3854 79.875 41.4375C79.7396 41.5417 79.599 41.6354 79.4531 41.7188C79.3385 41.7812 79.2188 41.8854 79.0938 42.0312C78.7917 42.1667 78.5677 42.3333 78.4219 42.5312C78.2865 42.7083 78.0833 42.8854 77.8125 43.0625C77.625 43.1875 77.3698 43.3438 77.0469 43.5312C76.724 43.7188 76.4479 43.8542 76.2188 43.9375C76.1875 43.9479 76.1562 43.9583 76.125 43.9688C76.0938 43.9792 76.0677 43.9896 76.0469 44C76.026 44.0104 76 44.0208 75.9688 44.0312C75.9375 44.0417 75.9062 44.0521 75.875 44.0625C75.7083 43.9583 75.5469 43.8542 75.3906 43.75C75.2344 43.6458 75.1042 43.5 75 43.3125C74.8021 43.1667 74.651 43.0625 74.5469 43C74.4219 42.9271 74.3125 42.8438 74.2188 42.75C74.1146 42.5729 74.0052 42.3958 73.8906 42.2188C73.776 42.0417 73.651 41.8646 73.5156 41.6875C73.2448 41.3229 73.0417 40.9271 72.9062 40.5C72.875 40.4479 72.849 40.3594 72.8281 40.2344L72.7812 39.9375C72.7604 39.8542 72.7396 39.776 72.7188 39.7031C72.6979 39.6302 72.6771 39.5625 72.6562 39.5C72.6146 39.3958 72.6042 39.2396 72.625 39.0312C72.625 38.8854 72.6458 38.75 72.6875 38.625C72.7083 38.5521 72.7292 38.4792 72.75 38.4062C72.7708 38.3229 72.7917 38.2396 72.8125 38.1562C72.8542 38.0208 72.901 37.8906 72.9531 37.7656C73.0052 37.6302 73.0573 37.5 73.1094 37.375C73.2344 37.0938 73.3229 36.8229 73.375 36.5625C73.5 36.125 73.6354 35.7083 73.7812 35.3125C73.8125 35.2396 73.8385 35.1406 73.8594 35.0156C73.8698 34.9219 73.9271 34.8542 74.0312 34.8125C74.1146 34.3958 74.25 33.9948 74.4375 33.6094C74.625 33.224 74.8125 32.8542 75 32.5C75.1146 32.2812 75.224 32.0625 75.3281 31.8438C75.4323 31.6146 75.5365 31.3854 75.6406 31.1562C75.7448 30.9271 75.849 30.7031 75.9531 30.4844C76.0573 30.2552 76.1667 30.0312 76.2812 29.8125C76.2917 29.5833 76.375 29.375 76.5312 29.1875C76.5417 28.9792 76.625 28.7552 76.7812 28.5156C76.9375 28.276 77.0417 28.0521 77.0938 27.8438C76.8646 27.7812 76.6094 27.776 76.3281 27.8281C76.0469 27.8802 75.8021 27.9271 75.5938 27.9688C75.2188 27.9792 74.8229 27.9792 74.4062 27.9688C74.3333 27.9583 74.2604 27.9479 74.1875 27.9375C74.125 27.9167 74.0573 27.901 73.9844 27.8906C73.849 27.8594 73.7188 27.8438 73.5938 27.8438C73.4062 27.8542 73.2656 27.8385 73.1719 27.7969C73.0677 27.7448 72.9688 27.7396 72.875 27.7812C72.5833 27.5312 72.2865 27.3125 71.9844 27.125C71.6719 26.9375 71.4688 26.6979 71.375 26.4062C71.375 26.3438 71.4062 26.2917 71.4688 26.25C71.5521 26.1875 71.6042 26.1458 71.625 26.125C71.8021 26.0729 71.9896 26.0573 72.1875 26.0781C72.3854 26.0885 72.5521 26.0521 72.6875 25.9688C72.9896 26.0104 73.2969 25.9896 73.6094 25.9062C73.8906 25.8229 74.1875 25.7917 74.5 25.8125C74.5417 25.8125 74.6042 25.8229 74.6875 25.8438C74.7708 25.8646 74.8333 25.875 74.875 25.875C74.9792 25.8854 75.0677 25.8854 75.1406 25.875C75.1823 25.8646 75.224 25.8542 75.2656 25.8438C75.3073 25.8333 75.3542 25.8229 75.4062 25.8125C75.5312 25.7917 75.6667 25.7917 75.8125 25.8125C75.9583 25.8333 76.1042 25.8333 76.25 25.8125C76.5521 25.7917 76.8802 25.8177 77.2344 25.8906C77.6198 25.9635 77.9583 25.9479 78.25 25.8438C78.3021 25.6979 78.3542 25.5521 78.4062 25.4062C78.4688 25.25 78.5365 25.099 78.6094 24.9531C78.7552 24.651 78.8646 24.3542 78.9375 24.0625C79.0208 23.9375 79.1042 23.7969 79.1875 23.6406C79.2708 23.4844 79.3333 23.3333 79.375 23.1875L79.6719 22.6875C79.7135 22.625 79.7552 22.5625 79.7969 22.5C79.8385 22.4375 79.8854 22.375 79.9375 22.3125C80.0833 22.0104 80.1927 21.724 80.2656 21.4531C80.3073 21.3073 80.349 21.1615 80.3906 21.0156C80.4427 20.8594 80.5 20.6979 80.5625 20.5312C80.6979 20.3854 80.8333 20.224 80.9688 20.0469C81.1042 19.8698 81.2396 19.6771 81.375 19.4688C81.5312 19.4896 81.651 19.4479 81.7344 19.3438C81.8281 19.2396 81.9688 19.25 82.1562 19.375C82.1562 19.4375 82.1823 19.4948 82.2344 19.5469C82.2865 19.599 82.2917 19.6771 82.25 19.7812C82.4583 19.9896 82.5938 20.1771 82.6562 20.3438C82.6979 20.5104 82.6823 20.7031 82.6094 20.9219C82.5365 21.1406 82.5521 21.3438 82.6562 21.5312C82.6979 21.625 82.7083 21.724 82.6875 21.8281C82.6667 21.9427 82.6771 22.0312 82.7188 22.0938C82.7708 22.2083 82.8281 22.3125 82.8906 22.4062C82.9635 22.5104 83 22.6458 83 22.8125C83 22.875 82.9844 22.9531 82.9531 23.0469C82.9219 23.1406 82.8854 23.2396 82.8438 23.3438C82.7708 23.6562 82.7083 23.875 82.6562 24C82.6354 24.0625 82.6146 24.1302 82.5938 24.2031C82.5729 24.2656 82.5521 24.3333 82.5312 24.4062C82.3854 24.5833 82.3125 24.6927 82.3125 24.7344C82.3125 24.7656 82.3021 24.8125 82.2812 24.875C82.25 24.9375 82.2188 25.0104 82.1875 25.0938C82.1562 25.1667 82.1198 25.2448 82.0781 25.3281C82.0365 25.4115 82 25.4896 81.9688 25.5625C81.9375 25.6354 81.9062 25.6979 81.875 25.75Z" fill="#0A97B0"/>
</svg>
