<svg width="709" height="214" viewBox="0 0 709 214" fill="none" xmlns="http://www.w3.org/2000/svg">
<path d="M5.38716 17.312C4.18716 17.312 3.20316 17.032 2.43516 16.472C1.68316 15.896 1.18716 15.056 0.947156 13.952C1.05916 13.68 1.21916 13.48 1.42716 13.352C1.63516 13.208 1.87516 13.136 2.14716 13.136C2.49916 13.136 2.77116 13.248 2.96316 13.472C3.17116 13.696 3.35516 14.128 3.51516 14.768L3.97116 16.544L3.03516 15.8C3.45116 15.976 3.83516 16.104 4.18716 16.184C4.55516 16.248 4.90716 16.28 5.24316 16.28C6.02716 16.28 6.68316 16.12 7.21116 15.8C7.75516 15.464 8.16316 15.008 8.43516 14.432C8.70716 13.856 8.84316 13.184 8.84316 12.416C8.84316 11.632 8.69116 10.96 8.38716 10.4C8.08316 9.84 7.65116 9.416 7.09116 9.128C6.54716 8.84 5.88316 8.696 5.09916 8.696C4.74716 8.696 4.37916 8.72 3.99516 8.768C3.61116 8.816 3.23516 8.888 2.86716 8.984L2.21916 8.792L2.72316 1.472H10.5232V3.392H3.17916L3.77916 2.312L3.37116 8.432L2.38716 8.096C2.96316 7.808 3.51516 7.608 4.04316 7.496C4.58716 7.368 5.15516 7.304 5.74716 7.304C6.77116 7.304 7.67516 7.496 8.45916 7.88C9.25916 8.248 9.87516 8.792 10.3072 9.512C10.7392 10.232 10.9552 11.128 10.9552 12.2C10.9552 13.224 10.7232 14.12 10.2592 14.888C9.79516 15.64 9.14716 16.232 8.31516 16.664C7.48316 17.096 6.50716 17.312 5.38716 17.312Z" fill="black"/>
<path d="M23.3943 0.62615L21.0989 5.28026L15.9632 6.029C15.0422 6.16257 14.6731 7.29798 15.341 7.94829L19.0565 11.5689L18.1777 16.6835C18.0196 17.608 18.9933 18.3005 19.8088 17.8682L24.4032 15.4532L28.9975 17.8682C29.813 18.297 30.7867 17.608 30.6286 16.6835L29.7498 11.5689L33.4653 7.94829C34.1332 7.29798 33.7641 6.16257 32.8431 6.029L27.7074 5.28026L25.412 0.62615C25.0007 -0.203435 23.8091 -0.213981 23.3943 0.62615Z" fill="#FFDE68"/>
<rect x="55.8064" width="600.194" height="18" rx="8" fill="#F5F5F5"/>
<rect x="55.8064" width="286.229" height="18" rx="8" fill="#FFDE68"/>
<path d="M701.091 17.36V12.584V12.128V3.248H700.731L701.715 2.792L698.643 7.472L695.547 12.176L695.811 11.144V11.576H705.555V13.088H694.611V11.816L701.691 1.256H703.059V17.36H701.091Z" fill="black"/>
<path d="M7.09116 66.36V61.584V61.128V52.248H6.73116L7.71516 51.792L4.64316 56.472L1.54716 61.176L1.81116 60.144V60.576H11.5552V62.088H0.611156V60.816L7.69116 50.256H9.05916V66.36H7.09116Z" fill="black"/>
<path d="M23.3943 49.6261L21.0989 54.2803L15.9632 55.029C15.0422 55.1626 14.6731 56.298 15.341 56.9483L19.0565 60.5689L18.1777 65.6835C18.0196 66.608 18.9933 67.3005 19.8088 66.8682L24.4032 64.4532L28.9975 66.8682C29.813 67.297 30.7867 66.608 30.6286 65.6835L29.7498 60.5689L33.4653 56.9483C34.1332 56.298 33.7641 55.1626 32.8431 55.029L27.7074 54.2803L25.412 49.6261C25.0007 48.7966 23.8091 48.786 23.3943 49.6261Z" fill="#FFDE68"/>
<rect x="55.8064" y="49" width="600.194" height="18" rx="8" fill="#F5F5F5"/>
<rect x="56" y="49" width="402" height="18" rx="8" fill="#FFDE68"/>
<path d="M695.211 66V64.488C695.851 63.864 696.467 63.24 697.059 62.616C697.651 61.992 698.211 61.408 698.739 60.864C699.523 60.016 700.171 59.224 700.683 58.488C701.195 57.752 701.579 57.056 701.835 56.4C702.091 55.728 702.219 55.08 702.219 54.456C702.219 53.432 701.955 52.632 701.427 52.056C700.899 51.48 700.195 51.192 699.315 51.192C699.027 51.192 698.667 51.232 698.235 51.312C697.803 51.376 697.363 51.512 696.915 51.72L698.235 50.88L697.659 52.992C697.563 53.376 697.443 53.688 697.299 53.928C697.171 54.168 697.027 54.344 696.867 54.456C696.707 54.568 696.515 54.624 696.291 54.624C696.035 54.624 695.803 54.56 695.595 54.432C695.387 54.288 695.219 54.096 695.091 53.856C695.187 53.024 695.459 52.336 695.907 51.792C696.371 51.248 696.947 50.84 697.635 50.568C698.339 50.296 699.091 50.16 699.891 50.16C700.931 50.16 701.771 50.336 702.411 50.688C703.067 51.024 703.547 51.504 703.851 52.128C704.171 52.736 704.331 53.44 704.331 54.24C704.331 54.944 704.187 55.632 703.899 56.304C703.611 56.976 703.123 57.728 702.435 58.56C701.747 59.392 700.795 60.4 699.579 61.584C699.307 61.856 699.003 62.152 698.667 62.472C698.347 62.792 697.995 63.128 697.611 63.48C697.243 63.816 696.859 64.168 696.459 64.536L696.747 63.528V64.08H705.003V66H695.211Z" fill="black"/>
<path d="M5.65116 115.312C4.48316 115.312 3.48316 115.048 2.65116 114.52C1.81916 113.976 1.29116 113.112 1.06716 111.928C1.21116 111.656 1.37916 111.456 1.57116 111.328C1.77916 111.2 2.01116 111.136 2.26716 111.136C2.66716 111.136 2.95516 111.272 3.13116 111.544C3.32316 111.816 3.49916 112.248 3.65916 112.84L4.13916 114.712L3.17916 113.872C3.59516 114.032 3.98716 114.144 4.35516 114.208C4.73916 114.256 5.06716 114.28 5.33916 114.28C6.12316 114.28 6.77916 114.144 7.30716 113.872C7.83516 113.584 8.22716 113.176 8.48316 112.648C8.75516 112.12 8.89116 111.496 8.89116 110.776C8.89116 110.088 8.75516 109.496 8.48316 109C8.21116 108.488 7.80316 108.096 7.25916 107.824C6.71516 107.552 6.03516 107.416 5.21916 107.416H4.06716V106.288H5.02716C5.74716 106.288 6.36316 106.152 6.87516 105.88C7.38716 105.608 7.77916 105.224 8.05116 104.728C8.32316 104.232 8.45916 103.656 8.45916 103C8.45916 102.408 8.34716 101.904 8.12316 101.488C7.89916 101.072 7.57116 100.752 7.13916 100.528C6.70716 100.304 6.17116 100.192 5.53116 100.192C5.27516 100.192 4.97116 100.216 4.61916 100.264C4.26716 100.312 3.88316 100.408 3.46716 100.552L4.52316 99.88L4.06716 101.56C3.93916 102.056 3.77916 102.424 3.58716 102.664C3.41116 102.904 3.11516 103.024 2.69916 103.024C2.44316 103.024 2.21116 102.968 2.00316 102.856C1.81116 102.728 1.67516 102.512 1.59516 102.208C1.72316 101.536 1.98716 100.976 2.38716 100.528C2.80316 100.064 3.31516 99.72 3.92316 99.496C4.53116 99.272 5.20316 99.16 5.93916 99.16C6.88316 99.16 7.69116 99.32 8.36316 99.64C9.05116 99.96 9.57916 100.4 9.94716 100.96C10.3152 101.52 10.4992 102.168 10.4992 102.904C10.4992 103.576 10.3392 104.2 10.0192 104.776C9.69916 105.336 9.23516 105.816 8.62716 106.216C8.01916 106.616 7.28316 106.896 6.41916 107.056V106.696C7.45916 106.776 8.31516 107 8.98716 107.368C9.67516 107.736 10.1792 108.208 10.4992 108.784C10.8352 109.344 11.0032 109.992 11.0032 110.728C11.0032 111.592 10.7792 112.368 10.3312 113.056C9.88316 113.744 9.25916 114.296 8.45916 114.712C7.67516 115.112 6.73916 115.312 5.65116 115.312Z" fill="black"/>
<path d="M23.3943 98.6261L21.0989 103.28L15.9632 104.029C15.0422 104.163 14.6731 105.298 15.341 105.948L19.0565 109.569L18.1777 114.684C18.0196 115.608 18.9933 116.301 19.8088 115.868L24.4032 113.453L28.9975 115.868C29.813 116.297 30.7867 115.608 30.6286 114.684L29.7498 109.569L33.4653 105.948C34.1332 105.298 33.7641 104.163 32.8431 104.029L27.7074 103.28L25.412 98.6261C25.0007 97.7966 23.8091 97.786 23.3943 98.6261Z" fill="#FFDE68"/>
<rect x="55.8064" y="98" width="600.194" height="18" rx="8" fill="#F5F5F5"/>
<rect x="56" y="98" width="171" height="18" rx="8" fill="#FFDE68"/>
<path d="M695.811 115V114.184L699.291 113.632H701.139L704.643 114.184V115H695.811ZM699.147 115C699.163 114.456 699.171 113.904 699.171 113.344C699.187 112.784 699.195 112.216 699.195 111.64C699.211 111.064 699.219 110.496 699.219 109.936V101.224L696.075 101.488V100.576L700.971 99.28L701.283 99.52L701.187 103.096V109.936C701.187 110.496 701.187 111.064 701.187 111.64C701.203 112.216 701.219 112.784 701.235 113.344C701.251 113.904 701.267 114.456 701.283 115H699.147Z" fill="black"/>
<path d="M1.21116 164V162.488C1.85116 161.864 2.46716 161.24 3.05916 160.616C3.65116 159.992 4.21116 159.408 4.73916 158.864C5.52316 158.016 6.17116 157.224 6.68316 156.488C7.19516 155.752 7.57916 155.056 7.83516 154.4C8.09116 153.728 8.21916 153.08 8.21916 152.456C8.21916 151.432 7.95516 150.632 7.42716 150.056C6.89916 149.48 6.19516 149.192 5.31516 149.192C5.02716 149.192 4.66716 149.232 4.23516 149.312C3.80316 149.376 3.36316 149.512 2.91516 149.72L4.23516 148.88L3.65916 150.992C3.56316 151.376 3.44316 151.688 3.29916 151.928C3.17116 152.168 3.02716 152.344 2.86716 152.456C2.70716 152.568 2.51516 152.624 2.29116 152.624C2.03516 152.624 1.80316 152.56 1.59516 152.432C1.38716 152.288 1.21916 152.096 1.09116 151.856C1.18716 151.024 1.45916 150.336 1.90716 149.792C2.37116 149.248 2.94716 148.84 3.63516 148.568C4.33916 148.296 5.09116 148.16 5.89116 148.16C6.93116 148.16 7.77116 148.336 8.41116 148.688C9.06716 149.024 9.54716 149.504 9.85116 150.128C10.1712 150.736 10.3312 151.44 10.3312 152.24C10.3312 152.944 10.1872 153.632 9.89916 154.304C9.61116 154.976 9.12316 155.728 8.43516 156.56C7.74716 157.392 6.79516 158.4 5.57916 159.584C5.30716 159.856 5.00316 160.152 4.66716 160.472C4.34716 160.792 3.99516 161.128 3.61116 161.48C3.24316 161.816 2.85916 162.168 2.45916 162.536L2.74716 161.528V162.08H11.0032V164H1.21116Z" fill="black"/>
<path d="M23.3943 147.626L21.0989 152.28L15.9632 153.029C15.0422 153.163 14.6731 154.298 15.341 154.948L19.0565 158.569L18.1777 163.684C18.0196 164.608 18.9933 165.301 19.8088 164.868L24.4032 162.453L28.9975 164.868C29.813 165.297 30.7867 164.608 30.6286 163.684L29.7498 158.569L33.4653 154.948C34.1332 154.298 33.7641 153.163 32.8431 153.029L27.7074 152.28L25.412 147.626C25.0007 146.797 23.8091 146.786 23.3943 147.626Z" fill="#FFDE68"/>
<rect x="55.8064" y="147" width="600.194" height="18" rx="8" fill="#F5F5F5"/>
<rect x="56" y="147" width="99" height="18" rx="8" fill="#FFDE68"/>
<path d="M695.811 164V163.184L699.291 162.632H701.139L704.643 163.184V164H695.811ZM699.147 164C699.163 163.456 699.171 162.904 699.171 162.344C699.187 161.784 699.195 161.216 699.195 160.64C699.211 160.064 699.219 159.496 699.219 158.936V150.224L696.075 150.488V149.576L700.971 148.28L701.283 148.52L701.187 152.096V158.936C701.187 159.496 701.187 160.064 701.187 160.64C701.203 161.216 701.219 161.784 701.235 162.344C701.251 162.904 701.267 163.456 701.283 164H699.147Z" fill="black"/>
<path d="M1.81116 213V212.184L5.29116 211.632H7.13916L10.6432 212.184V213H1.81116ZM5.14716 213C5.16316 212.456 5.17116 211.904 5.17116 211.344C5.18716 210.784 5.19516 210.216 5.19516 209.64C5.21116 209.064 5.21916 208.496 5.21916 207.936V199.224L2.07516 199.488V198.576L6.97116 197.28L7.28316 197.52L7.18716 201.096V207.936C7.18716 208.496 7.18716 209.064 7.18716 209.64C7.20316 210.216 7.21916 210.784 7.23516 211.344C7.25116 211.904 7.26716 212.456 7.28316 213H5.14716Z" fill="black"/>
<path d="M23.3943 196.626L21.0989 201.28L15.9632 202.029C15.0422 202.163 14.6731 203.298 15.341 203.948L19.0565 207.569L18.1777 212.684C18.0196 213.608 18.9933 214.301 19.8088 213.868L24.4032 211.453L28.9975 213.868C29.813 214.297 30.7867 213.608 30.6286 212.684L29.7498 207.569L33.4653 203.948C34.1332 203.298 33.7641 202.163 32.8431 202.029L27.7074 201.28L25.412 196.626C25.0007 195.797 23.8091 195.786 23.3943 196.626Z" fill="#FFDE68"/>
<rect x="55.8064" y="196" width="600.194" height="18" rx="8" fill="#F5F5F5"/>
<rect x="56" y="196" width="44" height="18" rx="8" fill="#FFDE68"/>
<path d="M695.811 213V212.184L699.291 211.632H701.139L704.643 212.184V213H695.811ZM699.147 213C699.163 212.456 699.171 211.904 699.171 211.344C699.187 210.784 699.195 210.216 699.195 209.64C699.211 209.064 699.219 208.496 699.219 207.936V199.224L696.075 199.488V198.576L700.971 197.28L701.283 197.52L701.187 201.096V207.936C701.187 208.496 701.187 209.064 701.187 209.64C701.203 210.216 701.219 210.784 701.235 211.344C701.251 211.904 701.267 212.456 701.283 213H699.147Z" fill="black"/>
</svg>
