<svg width="24" height="24" viewBox="0 0 24 24" fill="none" xmlns="http://www.w3.org/2000/svg">
<rect x="0.8" y="0.8" width="22.4" height="22.4" stroke="#868686" stroke-width="0.4"/>
<path d="M8.41562 17V7.774H9.32562L11.2576 13.192C11.379 13.528 11.5003 13.8687 11.6216 14.214C11.743 14.55 11.8643 14.8907 11.9856 15.236H12.0416C12.163 14.8907 12.2796 14.55 12.3916 14.214C12.5036 13.8687 12.6203 13.528 12.7416 13.192L14.6596 7.774H15.5836V17H14.9536V10.938C14.9536 10.5553 14.963 10.14 14.9816 9.692C15.0003 9.244 15.019 8.82867 15.0376 8.446H14.9816L14.2676 10.504L12.2796 15.992H11.7196L9.71762 10.504L8.98962 8.446H8.93362C8.95228 8.82867 8.97095 9.244 8.98962 9.692C9.00828 10.14 9.01762 10.5553 9.01762 10.938V17H8.41562Z" fill="black"/>
</svg>
