<svg width="158" height="32" viewBox="0 0 158 32" fill="none" xmlns="http://www.w3.org/2000/svg">
<rect x="0.8" y="0.8" width="30.4" height="30.4" stroke="#868686" stroke-width="0.4"/>
<path d="M16.1321 21.692C15.3641 21.692 14.6815 21.5427 14.0841 21.244C13.4868 20.9453 12.9801 20.5667 12.5641 20.108L13.0441 19.596C13.4281 20.0227 13.8868 20.3693 14.4201 20.636C14.9535 20.892 15.5241 21.02 16.1321 21.02C16.9428 21.02 17.5828 20.8227 18.0521 20.428C18.5215 20.0333 18.7561 19.5267 18.7561 18.908C18.7561 18.4707 18.6708 18.1187 18.5001 17.852C18.3295 17.5853 18.1001 17.3667 17.8121 17.196C17.5348 17.0147 17.2201 16.8493 16.8681 16.7L15.2681 15.98C14.9695 15.8413 14.6495 15.6707 14.3081 15.468C13.9775 15.2547 13.6948 14.9827 13.4601 14.652C13.2361 14.3107 13.1241 13.8787 13.1241 13.356C13.1241 12.844 13.2575 12.396 13.5241 12.012C13.7908 11.6173 14.1535 11.3133 14.6121 11.1C15.0815 10.876 15.6095 10.764 16.1961 10.764C16.8255 10.764 17.3908 10.892 17.8921 11.148C18.3935 11.3933 18.8041 11.6867 19.1241 12.028L18.7081 12.508C18.3988 12.188 18.0361 11.932 17.6201 11.74C17.2041 11.5373 16.7295 11.436 16.1961 11.436C15.5028 11.436 14.9375 11.6067 14.5001 11.948C14.0735 12.2893 13.8601 12.748 13.8601 13.324C13.8601 13.7293 13.9561 14.06 14.1481 14.316C14.3508 14.572 14.5908 14.78 14.8681 14.94C15.1561 15.1 15.4281 15.2387 15.6841 15.356L17.2841 16.06C17.6788 16.2307 18.0415 16.4333 18.3721 16.668C18.7135 16.892 18.9855 17.18 19.1881 17.532C19.4015 17.8733 19.5081 18.316 19.5081 18.86C19.5081 19.3933 19.3695 19.8787 19.0921 20.316C18.8148 20.7427 18.4201 21.0787 17.9081 21.324C17.4068 21.5693 16.8148 21.692 16.1321 21.692Z" fill="black"/>
<rect x="42.8" y="0.8" width="30.4" height="30.4" stroke="#868686" stroke-width="0.4"/>
<path d="M55.8176 21.5V10.956H56.5536V20.86H61.4176V21.5H55.8176Z" fill="black"/>
<rect x="84.8" y="0.8" width="30.4" height="30.4" stroke="#868686" stroke-width="0.4"/>
<path d="M92.6783 21.5L95.8463 16.044L92.9023 10.956H93.7023L95.4303 14.06C95.5796 14.2947 95.7183 14.524 95.8463 14.748C95.9743 14.9613 96.1236 15.212 96.2943 15.5H96.3583C96.5076 15.212 96.6409 14.9613 96.7583 14.748C96.8756 14.524 97.0036 14.2947 97.1423 14.06L98.8703 10.956H99.6223L96.6783 16.076L99.8463 21.5H99.0463L97.2063 18.268C97.0676 18.0013 96.9183 17.7347 96.7583 17.468C96.5983 17.2013 96.4223 16.908 96.2303 16.588H96.1663C95.9956 16.908 95.8409 17.2013 95.7023 17.468C95.5636 17.7347 95.4196 18.0013 95.2703 18.268L93.4303 21.5H92.6783ZM101.677 21.5V10.956H102.413V20.86H107.277V21.5H101.677Z" fill="black"/>
<rect x="126.8" y="0.8" width="30.4" height="30.4" stroke="#868686" stroke-width="0.4"/>
<path d="M130.819 21.5L133.987 16.044L131.043 10.956H131.843L133.571 14.06C133.72 14.2947 133.859 14.524 133.987 14.748C134.115 14.9613 134.264 15.212 134.435 15.5H134.499C134.648 15.212 134.782 14.9613 134.899 14.748C135.016 14.524 135.144 14.2947 135.283 14.06L137.011 10.956H137.763L134.819 16.076L137.987 21.5H137.187L135.347 18.268C135.208 18.0013 135.059 17.7347 134.899 17.468C134.739 17.2013 134.563 16.908 134.371 16.588H134.307C134.136 16.908 133.982 17.2013 133.843 17.468C133.704 17.7347 133.56 18.0013 133.411 18.268L131.571 21.5H130.819ZM138.538 21.5L141.706 16.044L138.762 10.956H139.562L141.29 14.06C141.439 14.2947 141.578 14.524 141.706 14.748C141.834 14.9613 141.983 15.212 142.154 15.5H142.218C142.367 15.212 142.5 14.9613 142.618 14.748C142.735 14.524 142.863 14.2947 143.002 14.06L144.73 10.956H145.482L142.538 16.076L145.706 21.5H144.906L143.066 18.268C142.927 18.0013 142.778 17.7347 142.618 17.468C142.458 17.2013 142.282 16.908 142.09 16.588H142.026C141.855 16.908 141.7 17.2013 141.562 17.468C141.423 17.7347 141.279 18.0013 141.13 18.268L139.29 21.5H138.538ZM147.536 21.5V10.956H148.272V20.86H153.136V21.5H147.536Z" fill="black"/>
</svg>
