<svg width="121" height="23" viewBox="0 0 121 23" fill="none" xmlns="http://www.w3.org/2000/svg">
<path d="M10.9718 0.77312L8.13764 6.51965L1.7965 7.44413C0.659343 7.60906 0.203614 9.01097 1.02827 9.81392L5.61594 14.2844L4.53087 20.5995C4.33556 21.741 5.53782 22.596 6.54476 22.0622L12.2175 19.0804L17.8902 22.0622C18.8972 22.5917 20.0994 21.741 19.9041 20.5995L18.8191 14.2844L23.4067 9.81392C24.2314 9.01097 23.7757 7.60906 22.6385 7.44413L16.2974 6.51965L13.4632 0.77312C12.9553 -0.251186 11.484 -0.264207 10.9718 0.77312Z" fill="#FFDE68"/>
<path d="M35.1924 0.77312L32.3582 6.51965L26.017 7.44413C24.8799 7.60906 24.4241 9.01097 25.2488 9.81392L29.8365 14.2844L28.7514 20.5995C28.5561 21.741 29.7583 22.596 30.7653 22.0622L36.438 19.0804L42.1108 22.0622C43.1177 22.5917 44.32 21.741 44.1247 20.5995L43.0396 14.2844L47.6273 9.81392C48.4519 9.01097 47.9962 7.60906 46.859 7.44413L40.5179 6.51965L37.6837 0.77312C37.1759 -0.251186 35.7045 -0.264207 35.1924 0.77312Z" fill="#FFDE68"/>
<path d="M59.4129 0.77312L56.5787 6.51965L50.2375 7.44413C49.1004 7.60906 48.6447 9.01097 49.4693 9.81392L54.057 14.2844L52.9719 20.5995C52.7766 21.741 53.9789 22.596 54.9858 22.0622L60.6585 19.0804L66.3313 22.0622C67.3382 22.5917 68.5405 21.741 68.3452 20.5995L67.2601 14.2844L71.8478 9.81392C72.6724 9.01097 72.2167 7.60906 71.0795 7.44413L64.7384 6.51965L61.9042 0.77312C61.3964 -0.251186 59.925 -0.264207 59.4129 0.77312Z" fill="#FFDE68"/>
<path d="M83.6334 0.77312L80.7992 6.51965L74.4581 7.44413C73.3209 7.60906 72.8652 9.01097 73.6898 9.81392L78.2775 14.2844L77.1924 20.5995C76.9971 21.741 78.1994 22.596 79.2063 22.0622L84.8791 19.0804L90.5518 22.0622C91.5588 22.5917 92.761 21.741 92.5657 20.5995L91.4806 14.2844L96.0683 9.81392C96.893 9.01097 96.4372 7.60906 95.3001 7.44413L88.9589 6.51965L86.1247 0.77312C85.6169 -0.251186 84.1456 -0.264207 83.6334 0.77312Z" fill="#FFDE68"/>
<path d="M107.854 0.77312L105.02 6.51965L98.6786 7.44413C97.5414 7.60906 97.0857 9.01097 97.9103 9.81392L102.498 14.2844L101.413 20.5995C101.218 21.741 102.42 22.596 103.427 22.0622L109.1 19.0804L114.772 22.0622C115.779 22.5917 116.982 21.741 116.786 20.5995L115.701 14.2844L120.289 9.81392C121.113 9.01097 120.658 7.60906 119.521 7.44413L113.179 6.51965L110.345 0.77312C109.837 -0.251186 108.366 -0.264207 107.854 0.77312Z" fill="white"/>
<path d="M105.092 7.01442L105.352 6.9765L105.468 6.74081L108.302 0.994473C108.628 0.333992 109.57 0.336255 109.897 0.994825C109.897 0.994952 109.897 0.995079 109.897 0.995207L112.731 6.74081L112.847 6.9765L113.107 7.01442L119.448 7.9389L119.449 7.93895C120.175 8.04432 120.468 8.94173 119.94 9.45568L119.94 9.45582L115.352 13.9263L115.164 14.1099L115.208 14.3691L116.293 20.6838C116.418 21.4102 115.651 21.9595 115.005 21.6196L115.005 21.6196L109.332 18.6378L109.1 18.5155L108.867 18.6378L103.194 21.6196L103.193 21.6204C102.55 21.9612 101.781 21.4133 101.906 20.6838L102.991 14.3691L103.035 14.1099L102.847 13.9263L98.2593 9.45582L98.2592 9.45568C97.7313 8.94173 98.0238 8.04432 98.7503 7.93895L98.7507 7.9389L105.092 7.01442Z" stroke="black" stroke-opacity="0.9"/>
</svg>
