<svg width="65" height="53" viewBox="0 0 65 53" fill="none" xmlns="http://www.w3.org/2000/svg">
<path d="M5.09849 38.6468C5.33208 39.5101 6.22583 40.0281 7.08911 39.7945L29.0672 33.9039C29.9305 33.6703 30.4485 32.7765 30.2149 31.9132L25.1672 13.0734C24.9336 12.2101 24.0399 11.6922 23.1766 11.9258L15.336 14.0383L17.8547 23.4531L11.5782 25.1289L9.05942 15.714L1.20865 17.8164C0.345368 18.05 -0.172601 18.9437 0.060993 19.807L5.09849 38.6468ZM39 0.5C37.2024 0.5 35.75 1.95234 35.75 3.75V36.6156L0.599274 46.2031C0.162555 46.325 -0.0913506 46.7718 0.0305243 47.1984L1.31021 51.9007C1.43209 52.3374 1.87896 52.5914 2.30552 52.4695L42.2906 41.5617C42.5344 47.6351 47.4906 52.4999 53.625 52.4999C59.9117 52.4999 65 47.4117 65 41.125V0.5H39ZM53.625 45.9999C50.9336 45.9999 48.75 43.8164 48.75 41.125C48.75 38.4336 50.9336 36.25 53.625 36.25C56.3164 36.25 58.5 38.4336 58.5 41.125C58.5 43.8164 56.3164 45.9999 53.625 45.9999Z" fill="#0A97B0"/>
</svg>
