<svg width="53" height="53" viewBox="0 0 53 53" fill="none" xmlns="http://www.w3.org/2000/svg">
<path d="M0.5 26.1057V5.375C0.5 2.68258 2.68258 0.5 5.375 0.5H26.1057C27.3987 0.500007 28.6386 1.01363 29.5529 1.92787L51.0722 23.4471C52.9759 25.3509 52.9759 28.4376 51.0722 30.3414L30.3414 51.0722C28.4376 52.9759 25.3509 52.9759 23.4471 51.0722L1.92787 29.5529C1.01363 28.6386 0.500007 27.3987 0.5 26.1057ZM11.875 7C9.18258 7 7 9.18258 7 11.875C7 14.5674 9.18258 16.75 11.875 16.75C14.5674 16.75 16.75 14.5674 16.75 11.875C16.75 9.18258 14.5674 7 11.875 7Z" fill="#0A97B0"/>
</svg>
