<svg width="73" height="53" viewBox="0 0 73 53" fill="none" xmlns="http://www.w3.org/2000/svg">
<path d="M65.0814 11.6429H11.9857C10.7544 11.6429 9.75715 10.8118 9.75715 9.78571C9.75715 8.75964 10.7544 7.92857 11.9857 7.92857H65.4714C66.7027 7.92857 67.7 7.0975 67.7 6.07143C67.7 2.99437 64.7068 0.5 61.0143 0.5H9.75715C4.8334 0.5 0.842865 3.82545 0.842865 7.92857V45.0714C0.842865 49.1746 4.8334 52.5 9.75715 52.5H65.0814C68.9842 52.5 72.1572 50.001 72.1572 46.9286V17.2143C72.1572 14.1419 68.9842 11.6429 65.0814 11.6429ZM58.7857 35.7857C56.3245 35.7857 54.3286 34.1224 54.3286 32.0714C54.3286 30.0204 56.3245 28.3571 58.7857 28.3571C61.2469 28.3571 63.2429 30.0204 63.2429 32.0714C63.2429 34.1224 61.2469 35.7857 58.7857 35.7857Z" fill="#0A97B0"/>
</svg>
